<svg xmlns="http://www.w3.org/2000/svg" xmlns:xlink="http://www.w3.org/1999/xlink" width="174px" height="33px" viewBox="0 0 174 33" version="1.1">
              <defs/>
        <g stroke="none" stroke-width="1" fill="none" fill-rule="evenodd">
            <g id="Deloitte-Logo" transform="translate(0.000000, -1.000000)">
                <rect id="Bound" x="0" y="0" width="175" height="35"/>
                <g transform="translate(0.000000, 1.000000)">
                    <path d="M164.539986,28.0287784 C164.539986,25.5058065 166.621367,23.4135858 169.131267,23.4135858 C171.641168,23.4135858 173.722549,25.5058065 173.722549,28.0287784 C173.722549,30.5517503 171.641168,32.6439709 169.131267,32.6439709 C166.621367,32.6439709 164.539986,30.5517503 164.539986,28.0287784" id="Shape" fill="#86BC25"/>
                    <path d="M26.5566752,15.4754547 C26.5566752,20.829078 25.1486823,24.8904475 22.2714793,27.7826348 C19.3942762,30.6748221 15.4151657,32.0901478 10.2117134,32.0901478 L0.233328483,32.0901478 L0.233328483,0.0914797086 L11.0075355,0.0914797086 C15.9661195,0.0914797086 19.8227958,1.38373361 22.5775647,4.02977732 C25.2098994,6.73735692 26.5566752,10.4910468 26.5566752,15.4754547 M17.8638491,15.7831342 C17.8638491,12.829411 17.3128953,10.6756545 16.1497707,9.26032882 C15.0478632,7.84500312 13.3337848,7.16810822 11.0075355,7.16810822 L8.55885211,7.16810822 L8.55885211,25.0750552 L10.4565818,25.0750552 C13.0276993,25.0750552 14.8642119,24.3366243 16.0885536,22.7982268 C17.2516782,21.1982934 17.8638491,18.9214651 17.8638491,15.7831342" id="Shape" fill="#FFFFFF"/>
                    <rect id="Rectangle-path" fill="#FFFFFF" x="54.4104491" y="0.0299438085" width="8.0194382" height="32.1217399"/>
                    <path d="M88.6307999,20.1521831 C88.6307999,24.0289448 87.5901095,27.1057399 85.5699456,29.2594964 C83.5497818,31.4132529 80.6725788,32.5208991 76.9995537,32.5208991 C73.5101798,32.5208991 70.6941939,31.4132529 68.612813,29.1979605 C66.5314321,26.9826681 65.4907416,23.9674089 65.4907416,20.1521831 C65.4907416,16.2754214 66.5314321,13.2601623 68.5515959,11.1064058 C70.5717597,8.95264932 73.4489627,7.90653902 77.1219878,7.90653902 C79.38702,7.90653902 81.4071838,8.39882622 83.1824793,9.38340062 C84.9577748,10.367975 86.2433336,11.7833007 87.2228069,13.6909136 C88.1410632,15.4754547 88.6307999,17.6292112 88.6307999,20.1521831 M73.632614,20.1521831 C73.632614,22.1828678 73.8774823,23.7828012 74.4284361,24.8289116 C74.9793898,25.8750219 75.836429,26.428845 77.1219878,26.428845 C78.3463296,26.428845 79.2645858,25.8750219 79.7543225,24.8289116 C80.2440592,23.7828012 80.5501446,22.1828678 80.5501446,20.1521831 C80.5501446,18.1214984 80.3052763,16.5831009 79.7543225,15.5369906 C79.2645858,14.4908803 78.3463296,13.9985931 77.1219878,13.9985931 C75.8976461,13.9985931 75.0406069,14.4908803 74.4896532,15.5369906 C73.8774823,16.5831009 73.632614,18.1214984 73.632614,20.1521831" id="Shape" fill="#FFFFFF"/>
                    <rect id="Rectangle-path" fill="#FFFFFF" x="91.8140884" y="8.27575442" width="8.0194382" height="23.8759292"/>
                    <rect id="Rectangle-path" fill="#FFFFFF" x="91.8140884" y="0.0299438085" width="8.0194382" height="5.35362331"/>
                    <path d="M115.994837,26.0596296 C117.096745,26.0596296 118.382303,25.813486 119.851514,25.2596629 L119.851514,31.2901811 C118.749606,31.7824683 117.770133,32.0901478 116.790659,32.3362914 C115.811186,32.5208991 114.648061,32.6439709 113.362502,32.6439709 C110.668951,32.6439709 108.771221,31.967076 107.546879,30.6132862 C106.383755,29.2594964 105.771584,27.1672758 105.771584,24.3981602 L105.771584,14.4293444 L102.955598,14.4293444 L102.955598,8.27575442 L105.771584,8.27575442 L105.771584,2.18370031 L113.852239,0.76837461 L113.852239,8.27575442 L118.933257,8.27575442 L118.933257,14.4293444 L113.852239,14.4293444 L113.852239,23.7212653 C113.852239,25.2596629 114.525627,26.0596296 115.994837,26.0596296" id="Shape" fill="#FFFFFF"/>
                    <path d="M134.482397,26.0596296 C135.584304,26.0596296 136.869863,25.813486 138.339073,25.2596629 L138.339073,31.2901811 C137.237166,31.7824683 136.257692,32.0901478 135.278219,32.3362914 C134.298746,32.5208991 133.135621,32.6439709 131.850062,32.6439709 C129.15651,32.6439709 127.258781,31.967076 126.034439,30.6132862 C124.871315,29.2594964 124.259144,27.1672758 124.259144,24.3981602 L124.259144,14.4293444 L121.443158,14.4293444 L121.443158,8.27575442 L124.259144,8.27575442 L124.259144,2.12216441 L132.339799,0.82991051 L132.339799,8.27575442 L137.420817,8.27575442 L137.420817,14.4293444 L132.339799,14.4293444 L132.339799,23.7212653 C132.339799,25.2596629 133.074404,26.0596296 134.482397,26.0596296" id="Shape" fill="#FFFFFF"/>
                    <path d="M159.703836,10.6756545 C157.806106,8.82957752 155.112555,7.84500312 151.623181,7.84500312 C147.950156,7.84500312 145.13417,8.89111342 143.175223,11.0448699 C141.216276,13.1986264 140.236803,16.2754214 140.236803,20.3367908 C140.236803,24.2135525 141.277493,27.2288117 143.420091,29.3825682 C145.562689,31.4747888 148.562327,32.5208991 152.419003,32.5208991 C154.255516,32.5208991 155.84716,32.3978273 157.193936,32.1516837 C158.540712,31.9055401 159.82627,31.4747888 161.050612,30.7978939 L159.82627,25.4442706 C158.908014,25.813486 158.050975,26.1211655 157.255153,26.3057732 C156.092028,26.5519168 154.806469,26.7365245 153.398476,26.7365245 C151.868049,26.7365245 150.643707,26.3673091 149.725451,25.6288783 C148.807195,24.8904475 148.378675,23.8443371 148.317458,22.4905473 L162.581039,22.4905473 L162.581039,18.7368574 C162.581039,15.2293111 161.601566,12.5217315 159.703836,10.6756545 L159.703836,10.6756545 Z M148.439892,17.2599958 C148.562327,15.9677419 148.929629,14.9831675 149.5418,14.3678085 C150.153971,13.7524495 150.949793,13.44477 151.929266,13.44477 C152.969957,13.44477 153.765779,13.8139854 154.37795,14.4908803 C154.990121,15.1677752 155.296206,16.0908137 155.357423,17.2599958 L148.439892,17.2599958 L148.439892,17.2599958 Z" id="Shape" fill="#FFFFFF"/>
                    <path d="M48.4723918,10.6756545 C46.5746622,8.82957752 43.8811104,7.84500312 40.3917366,7.84500312 C36.7187114,7.84500312 33.9027255,8.89111342 31.9437788,11.0448699 C29.984832,13.1986264 29.0053587,16.2754214 29.0053587,20.3367908 C29.0053587,24.2135525 30.0460491,27.2288117 32.1886471,29.3825682 C34.3312451,31.4747888 37.3308823,32.5208991 41.1875587,32.5208991 C43.0240712,32.5208991 44.6157155,32.3978273 45.9624913,32.1516837 C47.3092672,31.9055401 48.594826,31.4747888 49.8191677,30.7978939 L48.594826,25.4442706 C47.6765697,25.813486 46.8195305,26.1211655 46.0237084,26.3057732 C44.8605838,26.5519168 43.575025,26.7365245 42.167032,26.7365245 C40.6366049,26.7365245 39.4122632,26.3673091 38.4940069,25.6288783 C37.5757506,24.8904475 37.147231,23.8443371 37.0860139,22.4905473 L51.3495949,22.4905473 L51.3495949,18.7368574 C51.2883778,15.2293111 50.3701215,12.5217315 48.4723918,10.6756545 L48.4723918,10.6756545 Z M37.147231,17.2599958 C37.2696652,15.9677419 37.6369677,14.9831675 38.2491386,14.3678085 C38.8613094,13.7524495 39.6571315,13.44477 40.6366049,13.44477 C41.6772954,13.44477 42.4731175,13.8139854 43.0852883,14.4908803 C43.6974592,15.1677752 44.0035446,16.0908137 44.0647617,17.2599958 L37.147231,17.2599958 L37.147231,17.2599958 Z" id="Shape" fill="#FFFFFF"/>
                </g>
            </g>
        </g>
    </svg>