<svg width="305" height="209" viewBox="0 0 305 209" fill="none" xmlns="http://www.w3.org/2000/svg">
<rect width="304" height="208" transform="translate(0.136719 0.336426)" fill="white"/>
<circle cx="1.06836" cy="0.836426" r="0.5" fill="#97999B"/>
<circle cx="1.06836" cy="14.6365" r="0.5" fill="#97999B"/>
<circle cx="1.06836" cy="28.4365" r="0.5" fill="#97999B"/>
<circle cx="1.06836" cy="42.2363" r="0.5" fill="#97999B"/>
<circle cx="1.06836" cy="56.0364" r="0.5" fill="#97999B"/>
<circle cx="1.06836" cy="69.8364" r="0.5" fill="#97999B"/>
<circle cx="1.06836" cy="83.6365" r="0.5" fill="#97999B"/>
<circle cx="1.06836" cy="97.4365" r="0.5" fill="#97999B"/>
<circle cx="1.06836" cy="111.236" r="0.5" fill="#97999B"/>
<circle cx="1.06836" cy="125.036" r="0.5" fill="#97999B"/>
<circle cx="1.06836" cy="138.836" r="0.5" fill="#97999B"/>
<circle cx="1.06836" cy="152.636" r="0.5" fill="#97999B"/>
<circle cx="1.06836" cy="166.437" r="0.5" fill="#97999B"/>
<circle cx="1.06836" cy="180.236" r="0.5" fill="#97999B"/>
<circle cx="1.06836" cy="194.036" r="0.5" fill="#97999B"/>
<circle cx="1.06836" cy="207.836" r="0.5" fill="#97999B"/>
<circle cx="16.2188" cy="0.836426" r="0.5" fill="#97999B"/>
<circle cx="16.2188" cy="14.6365" r="0.5" fill="#97999B"/>
<circle cx="16.2188" cy="28.4365" r="0.5" fill="#97999B"/>
<circle cx="16.2188" cy="42.2363" r="0.5" fill="#97999B"/>
<circle cx="16.2188" cy="56.0364" r="0.5" fill="#97999B"/>
<circle cx="16.2188" cy="69.8364" r="0.5" fill="#97999B"/>
<circle cx="16.2188" cy="83.6365" r="0.5" fill="#97999B"/>
<circle cx="16.2188" cy="97.4365" r="0.5" fill="#97999B"/>
<circle cx="16.2188" cy="111.236" r="0.5" fill="#97999B"/>
<circle cx="16.2188" cy="125.036" r="0.5" fill="#97999B"/>
<circle cx="16.2188" cy="138.836" r="0.5" fill="#97999B"/>
<circle cx="16.2188" cy="152.636" r="0.5" fill="#97999B"/>
<circle cx="16.2188" cy="166.437" r="0.5" fill="#97999B"/>
<circle cx="16.2188" cy="180.236" r="0.5" fill="#97999B"/>
<circle cx="16.2188" cy="194.036" r="0.5" fill="#97999B"/>
<circle cx="16.2188" cy="207.836" r="0.5" fill="#97999B"/>
<circle cx="31.3691" cy="0.836426" r="0.5" fill="#97999B"/>
<circle cx="31.3691" cy="14.6365" r="0.5" fill="#97999B"/>
<circle cx="31.3691" cy="28.4365" r="0.5" fill="#97999B"/>
<circle cx="31.3691" cy="42.2363" r="0.5" fill="#97999B"/>
<circle cx="31.3691" cy="56.0364" r="0.5" fill="#97999B"/>
<circle cx="31.3691" cy="69.8364" r="0.5" fill="#97999B"/>
<circle cx="31.3691" cy="83.6365" r="0.5" fill="#97999B"/>
<circle cx="31.3691" cy="97.4365" r="0.5" fill="#97999B"/>
<circle cx="31.3691" cy="111.236" r="0.5" fill="#97999B"/>
<circle cx="31.3691" cy="125.036" r="0.5" fill="#97999B"/>
<circle cx="31.3691" cy="138.836" r="0.5" fill="#97999B"/>
<circle cx="31.3691" cy="152.636" r="0.5" fill="#97999B"/>
<circle cx="31.3691" cy="166.437" r="0.5" fill="#97999B"/>
<circle cx="31.3691" cy="180.236" r="0.5" fill="#97999B"/>
<circle cx="31.3691" cy="194.036" r="0.5" fill="#97999B"/>
<circle cx="31.3691" cy="207.836" r="0.5" fill="#97999B"/>
<circle cx="46.5176" cy="0.836426" r="0.5" fill="#97999B"/>
<circle cx="46.5176" cy="14.6365" r="0.5" fill="#97999B"/>
<circle cx="46.5176" cy="28.4365" r="0.5" fill="#97999B"/>
<circle cx="46.5176" cy="42.2363" r="0.5" fill="#97999B"/>
<circle cx="46.5176" cy="56.0364" r="0.5" fill="#97999B"/>
<circle cx="46.5176" cy="69.8364" r="0.5" fill="#97999B"/>
<circle cx="46.5176" cy="83.6365" r="0.5" fill="#97999B"/>
<circle cx="46.5176" cy="97.4365" r="0.5" fill="#97999B"/>
<circle cx="46.5176" cy="111.236" r="0.5" fill="#97999B"/>
<circle cx="46.5176" cy="125.036" r="0.5" fill="#97999B"/>
<circle cx="46.5176" cy="138.836" r="0.5" fill="#97999B"/>
<circle cx="46.5176" cy="152.636" r="0.5" fill="#97999B"/>
<circle cx="46.5176" cy="166.437" r="0.5" fill="#97999B"/>
<circle cx="46.5176" cy="180.236" r="0.5" fill="#97999B"/>
<circle cx="46.5176" cy="194.036" r="0.5" fill="#97999B"/>
<circle cx="46.5176" cy="207.836" r="0.5" fill="#97999B"/>
<circle cx="61.668" cy="0.836426" r="0.5" fill="#97999B"/>
<circle cx="61.668" cy="14.6365" r="0.5" fill="#97999B"/>
<circle cx="61.668" cy="28.4365" r="0.5" fill="#97999B"/>
<circle cx="61.668" cy="42.2363" r="0.5" fill="#97999B"/>
<circle cx="61.668" cy="56.0364" r="0.5" fill="#97999B"/>
<circle cx="61.668" cy="69.8364" r="0.5" fill="#97999B"/>
<circle cx="61.668" cy="83.6365" r="0.5" fill="#97999B"/>
<circle cx="61.668" cy="97.4365" r="0.5" fill="#97999B"/>
<circle cx="61.668" cy="111.236" r="0.5" fill="#97999B"/>
<circle cx="61.668" cy="125.036" r="0.5" fill="#97999B"/>
<circle cx="61.668" cy="138.836" r="0.5" fill="#97999B"/>
<circle cx="61.668" cy="152.636" r="0.5" fill="#97999B"/>
<circle cx="61.668" cy="166.437" r="0.5" fill="#97999B"/>
<circle cx="61.668" cy="180.236" r="0.5" fill="#97999B"/>
<circle cx="61.668" cy="194.036" r="0.5" fill="#97999B"/>
<circle cx="61.668" cy="207.836" r="0.5" fill="#97999B"/>
<circle cx="76.8184" cy="0.836426" r="0.5" fill="#97999B"/>
<circle cx="76.8184" cy="14.6365" r="0.5" fill="#97999B"/>
<circle cx="76.8184" cy="28.4365" r="0.5" fill="#97999B"/>
<circle cx="76.8184" cy="42.2363" r="0.5" fill="#97999B"/>
<circle cx="76.8184" cy="56.0364" r="0.5" fill="#97999B"/>
<circle cx="76.8184" cy="69.8364" r="0.5" fill="#97999B"/>
<circle cx="76.8184" cy="83.6365" r="0.5" fill="#97999B"/>
<circle cx="76.8184" cy="97.4365" r="0.5" fill="#97999B"/>
<circle cx="76.8184" cy="111.236" r="0.5" fill="#97999B"/>
<circle cx="76.8184" cy="125.036" r="0.5" fill="#97999B"/>
<circle cx="76.8184" cy="138.836" r="0.5" fill="#97999B"/>
<circle cx="76.8184" cy="152.636" r="0.5" fill="#97999B"/>
<circle cx="76.8184" cy="166.437" r="0.5" fill="#97999B"/>
<circle cx="76.8184" cy="180.236" r="0.5" fill="#97999B"/>
<circle cx="76.8184" cy="194.036" r="0.5" fill="#97999B"/>
<circle cx="76.8184" cy="207.836" r="0.5" fill="#97999B"/>
<circle cx="91.9688" cy="0.836426" r="0.5" fill="#97999B"/>
<circle cx="91.9688" cy="14.6365" r="0.5" fill="#97999B"/>
<circle cx="91.9688" cy="28.4365" r="0.5" fill="#97999B"/>
<circle cx="91.9688" cy="42.2363" r="0.5" fill="#97999B"/>
<circle cx="91.9688" cy="56.0364" r="0.5" fill="#97999B"/>
<circle cx="91.9688" cy="69.8364" r="0.5" fill="#97999B"/>
<circle cx="91.9688" cy="83.6365" r="0.5" fill="#97999B"/>
<circle cx="91.9688" cy="97.4365" r="0.5" fill="#97999B"/>
<circle cx="91.9688" cy="111.236" r="0.5" fill="#97999B"/>
<circle cx="91.9688" cy="125.036" r="0.5" fill="#97999B"/>
<circle cx="91.9688" cy="138.836" r="0.5" fill="#97999B"/>
<circle cx="91.9688" cy="152.636" r="0.5" fill="#97999B"/>
<circle cx="91.9688" cy="166.437" r="0.5" fill="#97999B"/>
<circle cx="91.9688" cy="180.236" r="0.5" fill="#97999B"/>
<circle cx="91.9688" cy="194.036" r="0.5" fill="#97999B"/>
<circle cx="91.9688" cy="207.836" r="0.5" fill="#97999B"/>
<circle cx="107.119" cy="0.836426" r="0.5" fill="#97999B"/>
<circle cx="107.119" cy="14.6365" r="0.5" fill="#97999B"/>
<circle cx="107.119" cy="28.4365" r="0.5" fill="#97999B"/>
<circle cx="107.119" cy="42.2363" r="0.5" fill="#97999B"/>
<circle cx="107.119" cy="56.0364" r="0.5" fill="#97999B"/>
<circle cx="107.119" cy="69.8364" r="0.5" fill="#97999B"/>
<circle cx="107.119" cy="83.6365" r="0.5" fill="#97999B"/>
<circle cx="107.119" cy="97.4365" r="0.5" fill="#97999B"/>
<circle cx="107.119" cy="111.236" r="0.5" fill="#97999B"/>
<circle cx="107.119" cy="125.036" r="0.5" fill="#97999B"/>
<circle cx="107.119" cy="138.836" r="0.5" fill="#97999B"/>
<circle cx="107.119" cy="152.636" r="0.5" fill="#97999B"/>
<circle cx="107.119" cy="166.437" r="0.5" fill="#97999B"/>
<circle cx="107.119" cy="180.236" r="0.5" fill="#97999B"/>
<circle cx="107.119" cy="194.036" r="0.5" fill="#97999B"/>
<circle cx="107.119" cy="207.836" r="0.5" fill="#97999B"/>
<circle cx="122.268" cy="0.836426" r="0.5" fill="#97999B"/>
<circle cx="122.268" cy="14.6365" r="0.5" fill="#97999B"/>
<circle cx="122.268" cy="28.4365" r="0.5" fill="#97999B"/>
<circle cx="122.268" cy="42.2363" r="0.5" fill="#97999B"/>
<circle cx="122.268" cy="56.0364" r="0.5" fill="#97999B"/>
<circle cx="122.268" cy="69.8364" r="0.5" fill="#97999B"/>
<circle cx="122.268" cy="83.6365" r="0.5" fill="#97999B"/>
<circle cx="122.268" cy="97.4365" r="0.5" fill="#97999B"/>
<circle cx="122.268" cy="111.236" r="0.5" fill="#97999B"/>
<circle cx="122.268" cy="125.036" r="0.5" fill="#97999B"/>
<circle cx="122.268" cy="138.836" r="0.5" fill="#97999B"/>
<circle cx="122.268" cy="152.636" r="0.5" fill="#97999B"/>
<circle cx="122.268" cy="166.437" r="0.5" fill="#97999B"/>
<circle cx="122.268" cy="180.236" r="0.5" fill="#97999B"/>
<circle cx="122.268" cy="194.036" r="0.5" fill="#97999B"/>
<circle cx="122.268" cy="207.836" r="0.5" fill="#97999B"/>
<circle cx="137.418" cy="0.836426" r="0.5" fill="#97999B"/>
<circle cx="137.418" cy="14.6365" r="0.5" fill="#97999B"/>
<circle cx="137.418" cy="28.4365" r="0.5" fill="#97999B"/>
<circle cx="137.418" cy="42.2363" r="0.5" fill="#97999B"/>
<circle cx="137.418" cy="56.0364" r="0.5" fill="#97999B"/>
<circle cx="137.418" cy="69.8364" r="0.5" fill="#97999B"/>
<circle cx="137.418" cy="83.6365" r="0.5" fill="#97999B"/>
<circle cx="137.418" cy="97.4365" r="0.5" fill="#97999B"/>
<circle cx="137.418" cy="111.236" r="0.5" fill="#97999B"/>
<circle cx="137.418" cy="125.036" r="0.5" fill="#97999B"/>
<circle cx="137.418" cy="138.836" r="0.5" fill="#97999B"/>
<circle cx="137.418" cy="152.636" r="0.5" fill="#97999B"/>
<circle cx="137.418" cy="166.437" r="0.5" fill="#97999B"/>
<circle cx="137.418" cy="180.236" r="0.5" fill="#97999B"/>
<circle cx="137.418" cy="194.036" r="0.5" fill="#97999B"/>
<circle cx="137.418" cy="207.836" r="0.5" fill="#97999B"/>
<circle cx="152.568" cy="0.836426" r="0.5" fill="#97999B"/>
<circle cx="152.568" cy="14.6365" r="0.5" fill="#97999B"/>
<circle cx="152.568" cy="28.4365" r="0.5" fill="#97999B"/>
<circle cx="152.568" cy="42.2363" r="0.5" fill="#97999B"/>
<circle cx="152.568" cy="56.0364" r="0.5" fill="#97999B"/>
<circle cx="152.568" cy="69.8364" r="0.5" fill="#97999B"/>
<circle cx="152.568" cy="83.6365" r="0.5" fill="#97999B"/>
<circle cx="152.568" cy="97.4365" r="0.5" fill="#97999B"/>
<circle cx="152.568" cy="111.236" r="0.5" fill="#97999B"/>
<circle cx="152.568" cy="125.036" r="0.5" fill="#97999B"/>
<circle cx="152.568" cy="138.836" r="0.5" fill="#97999B"/>
<circle cx="152.568" cy="152.636" r="0.5" fill="#97999B"/>
<circle cx="152.568" cy="166.437" r="0.5" fill="#97999B"/>
<circle cx="152.568" cy="180.236" r="0.5" fill="#97999B"/>
<circle cx="152.568" cy="194.036" r="0.5" fill="#97999B"/>
<circle cx="152.568" cy="207.836" r="0.5" fill="#97999B"/>
<circle cx="167.719" cy="0.836426" r="0.5" fill="#97999B"/>
<circle cx="167.719" cy="14.6365" r="0.5" fill="#97999B"/>
<circle cx="167.719" cy="28.4365" r="0.5" fill="#97999B"/>
<circle cx="167.719" cy="42.2363" r="0.5" fill="#97999B"/>
<circle cx="167.719" cy="56.0364" r="0.5" fill="#97999B"/>
<circle cx="167.719" cy="69.8364" r="0.5" fill="#97999B"/>
<circle cx="167.719" cy="83.6365" r="0.5" fill="#97999B"/>
<circle cx="167.719" cy="97.4365" r="0.5" fill="#97999B"/>
<circle cx="167.719" cy="111.236" r="0.5" fill="#97999B"/>
<circle cx="167.719" cy="125.036" r="0.5" fill="#97999B"/>
<circle cx="167.719" cy="138.836" r="0.5" fill="#97999B"/>
<circle cx="167.719" cy="152.636" r="0.5" fill="#97999B"/>
<circle cx="167.719" cy="166.437" r="0.5" fill="#97999B"/>
<circle cx="167.719" cy="180.236" r="0.5" fill="#97999B"/>
<circle cx="167.719" cy="194.036" r="0.5" fill="#97999B"/>
<circle cx="167.719" cy="207.836" r="0.5" fill="#97999B"/>
<circle cx="182.869" cy="0.836426" r="0.5" fill="#97999B"/>
<circle cx="182.869" cy="14.6365" r="0.5" fill="#97999B"/>
<circle cx="182.869" cy="28.4365" r="0.5" fill="#97999B"/>
<circle cx="182.869" cy="42.2363" r="0.5" fill="#97999B"/>
<circle cx="182.869" cy="56.0364" r="0.5" fill="#97999B"/>
<circle cx="182.869" cy="69.8364" r="0.5" fill="#97999B"/>
<circle cx="182.869" cy="83.6365" r="0.5" fill="#97999B"/>
<circle cx="182.869" cy="97.4365" r="0.5" fill="#97999B"/>
<circle cx="182.869" cy="111.236" r="0.5" fill="#97999B"/>
<circle cx="182.869" cy="125.036" r="0.5" fill="#97999B"/>
<circle cx="182.869" cy="138.836" r="0.5" fill="#97999B"/>
<circle cx="182.869" cy="152.636" r="0.5" fill="#97999B"/>
<circle cx="182.869" cy="166.437" r="0.5" fill="#97999B"/>
<circle cx="182.869" cy="180.236" r="0.5" fill="#97999B"/>
<circle cx="182.869" cy="194.036" r="0.5" fill="#97999B"/>
<circle cx="182.869" cy="207.836" r="0.5" fill="#97999B"/>
<circle cx="198.018" cy="0.836426" r="0.5" fill="#97999B"/>
<circle cx="198.018" cy="14.6365" r="0.5" fill="#97999B"/>
<circle cx="198.018" cy="28.4365" r="0.5" fill="#97999B"/>
<circle cx="198.018" cy="42.2363" r="0.5" fill="#97999B"/>
<circle cx="198.018" cy="56.0364" r="0.5" fill="#97999B"/>
<circle cx="198.018" cy="69.8364" r="0.5" fill="#97999B"/>
<circle cx="198.018" cy="83.6365" r="0.5" fill="#97999B"/>
<circle cx="198.018" cy="97.4365" r="0.5" fill="#97999B"/>
<circle cx="198.018" cy="111.236" r="0.5" fill="#97999B"/>
<circle cx="198.018" cy="125.036" r="0.5" fill="#97999B"/>
<circle cx="198.018" cy="138.836" r="0.5" fill="#97999B"/>
<circle cx="198.018" cy="152.636" r="0.5" fill="#97999B"/>
<circle cx="198.018" cy="166.437" r="0.5" fill="#97999B"/>
<circle cx="198.018" cy="180.236" r="0.5" fill="#97999B"/>
<circle cx="198.018" cy="194.036" r="0.5" fill="#97999B"/>
<circle cx="198.018" cy="207.836" r="0.5" fill="#97999B"/>
<circle cx="213.168" cy="0.836426" r="0.5" fill="#97999B"/>
<circle cx="213.168" cy="14.6365" r="0.5" fill="#97999B"/>
<circle cx="213.168" cy="28.4365" r="0.5" fill="#97999B"/>
<circle cx="213.168" cy="42.2363" r="0.5" fill="#97999B"/>
<circle cx="213.168" cy="56.0364" r="0.5" fill="#97999B"/>
<circle cx="213.168" cy="69.8364" r="0.5" fill="#97999B"/>
<circle cx="213.168" cy="83.6365" r="0.5" fill="#97999B"/>
<circle cx="213.168" cy="97.4365" r="0.5" fill="#97999B"/>
<circle cx="213.168" cy="111.236" r="0.5" fill="#97999B"/>
<circle cx="213.168" cy="125.036" r="0.5" fill="#97999B"/>
<circle cx="213.168" cy="138.836" r="0.5" fill="#97999B"/>
<circle cx="213.168" cy="152.636" r="0.5" fill="#97999B"/>
<circle cx="213.168" cy="166.437" r="0.5" fill="#97999B"/>
<circle cx="213.168" cy="180.236" r="0.5" fill="#97999B"/>
<circle cx="213.168" cy="194.036" r="0.5" fill="#97999B"/>
<circle cx="213.168" cy="207.836" r="0.5" fill="#97999B"/>
<circle cx="228.318" cy="0.836426" r="0.5" fill="#97999B"/>
<circle cx="228.318" cy="14.6365" r="0.5" fill="#97999B"/>
<circle cx="228.318" cy="28.4365" r="0.5" fill="#97999B"/>
<circle cx="228.318" cy="42.2363" r="0.5" fill="#97999B"/>
<circle cx="228.318" cy="56.0364" r="0.5" fill="#97999B"/>
<circle cx="228.318" cy="69.8364" r="0.5" fill="#97999B"/>
<circle cx="228.318" cy="83.6365" r="0.5" fill="#97999B"/>
<circle cx="228.318" cy="97.4365" r="0.5" fill="#97999B"/>
<circle cx="228.318" cy="111.236" r="0.5" fill="#97999B"/>
<circle cx="228.318" cy="125.036" r="0.5" fill="#97999B"/>
<circle cx="228.318" cy="138.836" r="0.5" fill="#97999B"/>
<circle cx="228.318" cy="152.636" r="0.5" fill="#97999B"/>
<circle cx="228.318" cy="166.437" r="0.5" fill="#97999B"/>
<circle cx="228.318" cy="180.236" r="0.5" fill="#97999B"/>
<circle cx="228.318" cy="194.036" r="0.5" fill="#97999B"/>
<circle cx="228.318" cy="207.836" r="0.5" fill="#97999B"/>
<circle cx="243.469" cy="0.836426" r="0.5" fill="#97999B"/>
<circle cx="243.469" cy="14.6365" r="0.5" fill="#97999B"/>
<circle cx="243.469" cy="28.4365" r="0.5" fill="#97999B"/>
<circle cx="243.469" cy="42.2363" r="0.5" fill="#97999B"/>
<circle cx="243.469" cy="56.0364" r="0.5" fill="#97999B"/>
<circle cx="243.469" cy="69.8364" r="0.5" fill="#97999B"/>
<circle cx="243.469" cy="83.6365" r="0.5" fill="#97999B"/>
<circle cx="243.469" cy="97.4365" r="0.5" fill="#97999B"/>
<circle cx="243.469" cy="111.236" r="0.5" fill="#97999B"/>
<circle cx="243.469" cy="125.036" r="0.5" fill="#97999B"/>
<circle cx="243.469" cy="138.836" r="0.5" fill="#97999B"/>
<circle cx="243.469" cy="152.636" r="0.5" fill="#97999B"/>
<circle cx="243.469" cy="166.437" r="0.5" fill="#97999B"/>
<circle cx="243.469" cy="180.236" r="0.5" fill="#97999B"/>
<circle cx="243.469" cy="194.036" r="0.5" fill="#97999B"/>
<circle cx="243.469" cy="207.836" r="0.5" fill="#97999B"/>
<circle cx="258.619" cy="0.836426" r="0.5" fill="#97999B"/>
<circle cx="258.619" cy="14.6365" r="0.5" fill="#97999B"/>
<circle cx="258.619" cy="28.4365" r="0.5" fill="#97999B"/>
<circle cx="258.619" cy="42.2363" r="0.5" fill="#97999B"/>
<circle cx="258.619" cy="56.0364" r="0.5" fill="#97999B"/>
<circle cx="258.619" cy="69.8364" r="0.5" fill="#97999B"/>
<circle cx="258.619" cy="83.6365" r="0.5" fill="#97999B"/>
<circle cx="258.619" cy="97.4365" r="0.5" fill="#97999B"/>
<circle cx="258.619" cy="111.236" r="0.5" fill="#97999B"/>
<circle cx="258.619" cy="125.036" r="0.5" fill="#97999B"/>
<circle cx="258.619" cy="138.836" r="0.5" fill="#97999B"/>
<circle cx="258.619" cy="152.636" r="0.5" fill="#97999B"/>
<circle cx="258.619" cy="166.437" r="0.5" fill="#97999B"/>
<circle cx="258.619" cy="180.236" r="0.5" fill="#97999B"/>
<circle cx="258.619" cy="194.036" r="0.5" fill="#97999B"/>
<circle cx="258.619" cy="207.836" r="0.5" fill="#97999B"/>
<circle cx="273.768" cy="0.836426" r="0.5" fill="#97999B"/>
<circle cx="273.768" cy="14.6365" r="0.5" fill="#97999B"/>
<circle cx="273.768" cy="28.4365" r="0.5" fill="#97999B"/>
<circle cx="273.768" cy="42.2363" r="0.5" fill="#97999B"/>
<circle cx="273.768" cy="56.0364" r="0.5" fill="#97999B"/>
<circle cx="273.768" cy="69.8364" r="0.5" fill="#97999B"/>
<circle cx="273.768" cy="83.6365" r="0.5" fill="#97999B"/>
<circle cx="273.768" cy="97.4365" r="0.5" fill="#97999B"/>
<circle cx="273.768" cy="111.236" r="0.5" fill="#97999B"/>
<circle cx="273.768" cy="125.036" r="0.5" fill="#97999B"/>
<circle cx="273.768" cy="138.836" r="0.5" fill="#97999B"/>
<circle cx="273.768" cy="152.636" r="0.5" fill="#97999B"/>
<circle cx="273.768" cy="166.437" r="0.5" fill="#97999B"/>
<circle cx="273.768" cy="180.236" r="0.5" fill="#97999B"/>
<circle cx="273.768" cy="194.036" r="0.5" fill="#97999B"/>
<circle cx="273.768" cy="207.836" r="0.5" fill="#97999B"/>
<circle cx="288.918" cy="0.836426" r="0.5" fill="#97999B"/>
<circle cx="288.918" cy="14.6365" r="0.5" fill="#97999B"/>
<circle cx="288.918" cy="28.4365" r="0.5" fill="#97999B"/>
<circle cx="288.918" cy="42.2363" r="0.5" fill="#97999B"/>
<circle cx="288.918" cy="56.0364" r="0.5" fill="#97999B"/>
<circle cx="288.918" cy="69.8364" r="0.5" fill="#97999B"/>
<circle cx="288.918" cy="83.6365" r="0.5" fill="#97999B"/>
<circle cx="288.918" cy="97.4365" r="0.5" fill="#97999B"/>
<circle cx="288.918" cy="111.236" r="0.5" fill="#97999B"/>
<circle cx="288.918" cy="125.036" r="0.5" fill="#97999B"/>
<circle cx="288.918" cy="138.836" r="0.5" fill="#97999B"/>
<circle cx="288.918" cy="152.636" r="0.5" fill="#97999B"/>
<circle cx="288.918" cy="166.437" r="0.5" fill="#97999B"/>
<circle cx="288.918" cy="180.236" r="0.5" fill="#97999B"/>
<circle cx="288.918" cy="194.036" r="0.5" fill="#97999B"/>
<circle cx="288.918" cy="207.836" r="0.5" fill="#97999B"/>
<circle cx="304.068" cy="0.836426" r="0.5" fill="#97999B"/>
<circle cx="304.068" cy="14.6365" r="0.5" fill="#97999B"/>
<circle cx="304.068" cy="28.4365" r="0.5" fill="#97999B"/>
<circle cx="304.068" cy="42.2363" r="0.5" fill="#97999B"/>
<circle cx="304.068" cy="56.0364" r="0.5" fill="#97999B"/>
<circle cx="304.068" cy="69.8364" r="0.5" fill="#97999B"/>
<circle cx="304.068" cy="83.6365" r="0.5" fill="#97999B"/>
<circle cx="304.068" cy="97.4365" r="0.5" fill="#97999B"/>
<circle cx="304.068" cy="111.236" r="0.5" fill="#97999B"/>
<circle cx="304.068" cy="125.036" r="0.5" fill="#97999B"/>
<circle cx="304.068" cy="138.836" r="0.5" fill="#97999B"/>
<circle cx="304.068" cy="152.636" r="0.5" fill="#97999B"/>
<circle cx="304.068" cy="166.437" r="0.5" fill="#97999B"/>
<circle cx="304.068" cy="180.236" r="0.5" fill="#97999B"/>
<circle cx="304.068" cy="194.036" r="0.5" fill="#97999B"/>
<circle cx="304.068" cy="207.836" r="0.5" fill="#97999B"/>
<path d="M13.2051 139.336H47.8674M287.854 139.336H259.529M195.203 139.336H227.366" stroke="black" stroke-linecap="round"/>
<path d="M149.818 179.734L75.2758 153.334L63.5586 68.3587L192.352 66.1494L208.11 153.334L284.735 179.087L149.818 179.734Z" fill="white"/>
<path d="M194.472 145.554L194.476 145.554C196.165 145.587 197.576 144.309 197.736 142.655C197.75 142.503 197.737 142.345 197.713 142.179L188.59 80.7943L188.588 80.7776L188.588 80.761C188.591 80.6086 188.487 80.4428 188.253 80.2953C188.024 80.1512 187.707 80.0511 187.384 80.0233C187.059 79.9953 186.753 80.0431 186.537 80.1657C186.333 80.2816 186.199 80.4672 186.199 80.7647C186.199 90.2713 181.279 106.735 169.783 120C158.278 133.275 138.939 140.53 130.72 143.729C130.549 143.796 130.424 143.938 130.349 144.139C130.274 144.341 130.255 144.591 130.292 144.838C130.329 145.085 130.42 145.314 130.549 145.477C130.675 145.637 130.832 145.728 131.011 145.732L194.472 145.554Z" fill="#C4D600" stroke="#C4D600" stroke-width="0.392997"/>
<path d="M172.997 66.1226H192.897L207.954 153.255M207.954 153.255H91.2461M207.954 153.255L285.778 179.596H149.099L99.1973 162.503" stroke="black" stroke-linecap="round" stroke-linejoin="round"/>
<path d="M143.454 163.457L137.461 161.686H152.329L157.728 163.457H143.454Z" fill="#C4D600" stroke="#C4D600" stroke-width="0.940138" stroke-linejoin="round"/>
<path d="M152.115 160.113H155.352L168.194 164.323H142.929L130.051 160.113H138.641" stroke="black" stroke-linecap="round" stroke-linejoin="round"/>
<path d="M243.685 134.203C244.836 132.338 247.631 131.314 249.982 131.631C252.989 132.037 255.477 136.172 252.324 141.868C249.989 146.086 244.416 147.857 241.072 148.071" stroke="black" stroke-linecap="round"/>
<path d="M245.88 124.54C244.304 131.795 239.426 155.201 239.426 155.201C239.426 155.201 237.946 156.557 231.015 156.557C224.084 156.557 222.664 154.865 222.664 154.865L219.636 139.87C219.636 139.87 217.645 129.934 216.573 124.54C216.278 123.056 225.459 122.078 231.283 122.085C237.063 122.092 246.14 123.339 245.88 124.54Z" fill="white"/>
<path d="M231.282 156.557C238.213 156.557 239.425 155.201 239.425 155.201C239.425 155.201 244.303 131.795 245.879 124.54C246.14 123.339 237.095 122.321 231.315 122.313C225.491 122.306 216.277 123.056 216.572 124.54C217.644 129.934 219.635 139.87 219.635 139.87L222.093 152.674" stroke="black" stroke-linecap="round"/>
<path d="M245.839 124.737C245.799 126.32 238.515 127.03 231.241 127.03C223.864 127.03 216.586 126.103 216.586 124.617" stroke="black"/>
<path d="M131.725 137.917C151.813 127.422 171.551 106.063 176.792 83.0416" stroke="#C4D600" stroke-width="3" stroke-linecap="round"/>
<path d="M176.324 83.0417C168.301 96.1081 151.467 112.24 132.123 121.308" stroke="#C4D600" stroke-width="2" stroke-linecap="round"/>
<path d="M53.2528 142.988C42.4097 120.042 35.0122 95.9202 39.8036 77.5132C44.595 59.1062 56.8809 54.2793 66.6152 53.4749C85.4149 51.9213 99.6219 57.9544 110.196 62.6252C115.256 58.2139 118.559 55.6108 119.695 54.4514L119.365 45.793L128.229 49.3385C129.879 48.7063 134.018 47.4667 137.382 47.5656C140.747 47.6646 145.656 49.2561 147.69 50.0394L157.173 46.9884C157.311 47.5795 157.594 49.8997 157.627 54.4514C157.668 60.1409 156.259 70.8043 154.741 77.4577C151.709 90.7437 138.452 104.899 132.646 108.3C131.489 108.978 130.335 109.632 129.185 110.264C129.839 116.838 131.366 121.95 133.876 126.121C136.538 130.543 124.917 133.398 118.774 134.273C116.447 131.149 111.576 123.995 109.95 119.391C104.072 121.852 98.5308 123.984 93.5132 126.121L74.3142 130.255C72.7907 126.834 69.5177 119.481 68.6134 117.434C69.1488 125.585 69.9223 132.249 68.6134 135.64C62.1402 138.544 55.6759 141.748 53.2528 142.988Z" fill="white"/>
<path fill-rule="evenodd" clip-rule="evenodd" d="M123.937 71.9928C126.409 75.3879 130.746 77.921 136.866 78.2433C142.878 78.5598 147.041 76.4408 149.613 73.6347L168.211 78.0123C168.456 78.0699 168.701 77.9183 168.758 77.6736C168.816 77.429 168.664 77.184 168.42 77.1265L150.273 72.8553C150.713 72.2949 151.094 71.7149 151.419 71.1278L175.225 70.1718C175.476 70.1617 175.672 69.95 175.662 69.6989C175.651 69.4478 175.44 69.2524 175.189 69.2625L151.886 70.1983C152.114 69.6914 152.303 69.1841 152.451 68.6842L170.578 64.1913C170.822 64.1308 170.97 63.8841 170.91 63.6401C170.849 63.3962 170.603 63.2475 170.359 63.3079L152.699 67.6852C152.771 67.3237 152.821 66.9692 152.85 66.6249C153.278 61.6149 152.375 60.2643 150.69 58.9291C148.864 57.4827 145.964 57.2303 141.197 56.8154C140.305 56.7378 139.347 56.6544 138.319 56.5565C137.432 56.472 136.566 56.3757 135.726 56.2822C131.414 55.8023 127.763 55.396 125.181 57.0333C123.532 58.0787 121.838 60.5373 121.559 63.4619C121.543 63.6265 121.531 63.7914 121.522 63.9565L111.142 58.4946C110.919 58.3776 110.644 58.463 110.527 58.6854C110.41 58.9078 110.496 59.183 110.718 59.3L121.51 64.9785C121.544 66.1135 121.737 67.2467 122.086 68.346L100.589 64.6193C100.342 64.5764 100.106 64.7424 100.063 64.99C100.02 65.2376 100.186 65.4731 100.434 65.516L122.445 69.3319C122.699 69.9458 123.003 70.5455 123.357 71.125L108.994 72.2372C108.744 72.2566 108.556 72.4754 108.576 72.726C108.595 72.9765 108.814 73.1639 109.064 73.1445L123.937 71.9928ZM123.937 71.9928L133.573 71.2467C133.775 71.2311 133.943 71.0836 133.983 70.885C134.024 70.6865 133.929 70.4848 133.75 70.3904L121.522 63.9565C121.504 64.2967 121.5 64.6377 121.51 64.9785L130.772 69.8517L122.086 68.346C122.192 68.678 122.311 69.007 122.445 69.3319L129.877 70.6202L123.357 71.125C123.538 71.4198 123.731 71.7093 123.937 71.9928ZM152.699 67.6852C152.634 68.0132 152.552 68.347 152.451 68.6842L145.271 70.4639L151.886 70.1983C151.745 70.5089 151.59 70.8194 151.419 71.1278L144.171 71.4189L150.273 72.8553C150.066 73.1199 149.846 73.3801 149.613 73.6347L140.717 71.541C140.513 71.4928 140.368 71.3109 140.367 71.1007C140.365 70.8906 140.508 70.7069 140.712 70.6564L152.699 67.6852Z" fill="black"/>
<path d="M144.29 62.4803C142.649 63.2256 142.339 65.0521 142.921 67.2596C144.02 67.825 146.264 68.2955 147.427 67.3594C148.896 66.1782 148.477 64.3266 148.148 63.3473C147.587 62.884 146.188 61.618 144.29 62.4803Z" fill="white"/>
<path d="M147 66.0878C147.53 65.2235 147.284 63.7626 146.218 63.3868C145.399 63.0983 144.542 63.3719 144.093 64.1383C143.555 65.0543 143.992 66.2096 144.716 66.6027C145.292 66.9155 146.471 66.9521 147 66.0878Z" fill="black"/>
<path d="M131.699 61.6073C130.63 60.4623 128.991 60.3713 127.415 61.1296C126.801 61.6903 125.877 63.2012 126.732 64.8068C127.335 65.9417 128.817 66.9864 131.596 66.2547C132.843 64.2857 132.602 62.5751 131.699 61.6073Z" fill="white"/>
<path d="M131.037 64.687C131.613 63.7453 131.346 62.1535 130.184 61.744C129.291 61.4296 128.358 61.7278 127.869 62.5628C127.283 63.5609 127.759 64.8198 128.547 65.2481C129.175 65.5889 130.46 65.6288 131.037 64.687Z" fill="black"/>
<ellipse cx="62.3375" cy="85.7007" rx="1.40392" ry="1.77102" fill="black"/>
<path d="M146.78 53.057C146.672 53.0339 146.669 52.8137 146.777 52.7939L154.769 50.4122C155.009 50.3164 155.478 50.5406 155.479 50.9249L155.993 60.333C156.012 60.4415 155.805 60.516 155.746 60.4233C155.119 59.1341 153.91 56.6502 151.417 55.1623C148.923 53.6744 147.722 53.2588 146.78 53.057Z" fill="black"/>
<path d="M121.451 56.9442C121.383 57.042 121.162 56.9526 121.188 56.8361L121.4 49.8117C121.413 49.3667 121.332 48.7741 121.756 48.6357C121.887 48.5928 122.026 48.5906 122.112 48.6198L130.408 51.8086C130.524 51.8345 130.511 52.0726 130.394 52.093C129.366 52.2712 126.527 52.8582 125.05 53.7335C123.573 54.6089 122.049 56.0891 121.451 56.9442Z" fill="black"/>
<path d="M138.957 69.2344C139.621 69.1837 139.953 69.1583 140.013 69.1724C140.291 69.2378 140.4 69.4532 140.287 69.7159C140.262 69.7723 140.059 70.0069 139.652 70.4763L138.689 71.5877C138.37 71.9567 138.21 72.1411 138.054 72.2516C137.443 72.6856 136.612 72.6334 136.06 72.1263C135.92 71.9973 135.785 71.7942 135.514 71.3882L134.8 70.3188C134.448 69.7915 134.272 69.5279 134.255 69.4697C134.174 69.1919 134.298 69.0018 134.585 68.9644C134.645 68.9566 134.991 69.0174 135.683 69.1389C136.205 69.2305 136.817 69.2924 137.514 69.2892C138.067 69.2867 138.546 69.2657 138.957 69.2344Z" fill="#C4D600"/>
<path d="M53.2344 143.259C37.6605 113.728 25.3717 57.7432 66.7514 53.3421C88.5282 51.0259 98.5182 59.5648 109.129 61.7339" stroke="black" stroke-linecap="round" stroke-linejoin="round"/>
<path d="M108.854 63.7084C112.176 61.184 118.066 56.0953 119.677 54.437C119.503 49.3812 119.4 46.6257 119.4 45.5244L128.25 49.4001C129.94 48.6892 134.358 47.3568 138.515 47.7151C142.671 48.0735 146.249 49.3575 147.518 49.9547L157.584 46.9125C157.584 51.2507 157.309 60.1762 157.238 61.8245C156.418 80.6832 147.436 96.7863 132.641 108.553" stroke="black" stroke-linecap="round" stroke-linejoin="round"/>
<path d="M107.811 110.475C108.482 115.923 111.711 125.154 118.325 133.63C124.627 141.707 134.299 145.884 138.913 156.482C141.181 161.69 144.139 162.087 147.171 161.316C150.202 160.545 150.049 157.085 149.343 154.248C144.84 136.16 127.395 127.123 129.802 103.775" stroke="black" stroke-linecap="round" stroke-linejoin="round"/>
<path d="M146.91 161.39C150.013 160.97 149.665 156.358 148.959 153.521C146.11 142.079 137.836 133.555 132.749 122.925C127.662 112.296 110.358 123.347 116.66 131.423C122.963 139.5 133.915 145.157 138.529 155.755C140.797 160.963 143.808 161.809 146.91 161.39Z" fill="black"/>
<path d="M92.9768 163.57C87.124 148.94 91.3654 139.219 93.6915 126.124C95.3852 116.589 98.5054 97.5788 95.9657 80.8135" stroke="black" stroke-linecap="round" stroke-linejoin="round"/>
<path d="M97.0257 155.018C97.0258 153.31 96.2426 138.919 97.9789 128.206C98.4197 123.291 113.376 124.079 112.436 129.298C111.261 135.822 106.319 147.206 105.776 149.579C105.397 151.23 106.199 152.18 107.006 152.874C110.609 155.159 110.389 157.356 109.355 158.784H100.105C98.8243 158.784 97.0255 157.08 97.0257 155.018Z" fill="black" stroke="black" stroke-linecap="round" stroke-linejoin="round"/>
<path d="M83.9512 30.7003C83.9512 48.1389 59.7638 45.5191 63.255 69.8631C63.6738 72.7835 63.4495 77.0389 60.1909 77.0389C56.9323 77.0389 51.1651 66.876 52.9175 56.6829C54.9811 44.6801 67.8884 36.1115 65.5892 30.7003C63.2899 25.2891 51.9947 29.4843 46.712 36.0841C38.5985 46.2207 19.8535 33.0585 35.8503 19.5816C52.66 5.41991 83.9512 11.1124 83.9512 30.7003Z" fill="black" stroke="black" stroke-linecap="round" stroke-linejoin="round"/>
<path d="M81.3763 166.16C79.5415 162.85 73.6148 142.079 74.1426 133.112C74.6655 124.229 93.3502 126.522 91.583 136.595C89.3741 149.186 88.0287 152.192 93.3283 164.544C96.2605 164.757 97.0264 166.062 97.1916 167.185C97.5524 169.639 95.7149 171.016 95.1749 171.458C92.5018 171.664 89.5983 171.571 87.5785 171.205C85.0584 170.747 83.1413 169.345 81.3763 166.16Z" fill="black" stroke="black" stroke-linecap="round" stroke-linejoin="round"/>
<path d="M49.315 162.591C51.3653 159.239 53.7409 147.045 53.3931 137.98C52.9938 127.576 68.9525 125.862 68.9525 133.739C68.9525 139.922 62.7143 161.872 60.939 165.585C59.437 168.727 57.1261 170.062 55.1542 170.513C53.7061 170.844 47.9025 170.877 45.0295 170.513C44.6963 169.489 44.2297 167.619 45.0295 165.448C45.8294 163.276 48.2198 162.638 49.315 162.591Z" fill="black" stroke="black" stroke-linecap="round" stroke-linejoin="round"/>
</svg>
