<svg width="12" height="12" viewBox="0 0 12 12" fill="none" xmlns="http://www.w3.org/2000/svg">
<mask id="path-1-outside-1_22766_8436" maskUnits="userSpaceOnUse" x="0" y="0.480469" width="12" height="12" fill="black">
<rect fill="white" y="0.480469" width="12" height="12"/>
<path d="M5.125 7.23047H1.625V5.48047H5.125V1.98047H6.875V5.48047H10.375V7.23047H6.875V10.7305H5.125V7.23047Z"/>
</mask>
<path d="M5.125 7.23047H1.625V5.48047H5.125V1.98047H6.875V5.48047H10.375V7.23047H6.875V10.7305H5.125V7.23047Z" fill="black"/>
<path d="M5.125 7.23047H6.125V6.23047H5.125V7.23047ZM1.625 7.23047H0.625V8.23047H1.625V7.23047ZM1.625 5.48047V4.48047H0.625V5.48047H1.625ZM5.125 5.48047V6.48047H6.125V5.48047H5.125ZM5.125 1.98047V0.980469H4.125V1.98047H5.125ZM6.875 1.98047H7.875V0.980469H6.875V1.98047ZM6.875 5.48047H5.875V6.48047H6.875V5.48047ZM10.375 5.48047H11.375V4.48047H10.375V5.48047ZM10.375 7.23047V8.23047H11.375V7.23047H10.375ZM6.875 7.23047V6.23047H5.875V7.23047H6.875ZM6.875 10.7305V11.7305H7.875V10.7305H6.875ZM5.125 10.7305H4.125V11.7305H5.125V10.7305ZM5.125 7.23047V6.23047H1.625V7.23047V8.23047H5.125V7.23047ZM1.625 7.23047H2.625V5.48047H1.625H0.625V7.23047H1.625ZM1.625 5.48047V6.48047H5.125V5.48047V4.48047H1.625V5.48047ZM5.125 5.48047H6.125V1.98047H5.125H4.125V5.48047H5.125ZM5.125 1.98047V2.98047H6.875V1.98047V0.980469H5.125V1.98047ZM6.875 1.98047H5.875V5.48047H6.875H7.875V1.98047H6.875ZM6.875 5.48047V6.48047H10.375V5.48047V4.48047H6.875V5.48047ZM10.375 5.48047H9.375V7.23047H10.375H11.375V5.48047H10.375ZM10.375 7.23047V6.23047H6.875V7.23047V8.23047H10.375V7.23047ZM6.875 7.23047H5.875V10.7305H6.875H7.875V7.23047H6.875ZM6.875 10.7305V9.73047H5.125V10.7305V11.7305H6.875V10.7305ZM5.125 10.7305H6.125V7.23047H5.125H4.125V10.7305H5.125Z" fill="#C4D600" mask="url(#path-1-outside-1_22766_8436)"/>
</svg>
