<svg width="304" height="209" viewBox="0 0 304 209" fill="none" xmlns="http://www.w3.org/2000/svg">
    <g clip-path="url(#clip0_16731_231485)">
        <rect width="304" height="208" transform="translate(0 0.985352)" fill="white"/>
        <circle cx="0.5" cy="1.48535" r="0.5" fill="#97999B"/>
        <circle cx="0.5" cy="15.2852" r="0.5" fill="#97999B"/>
        <circle cx="0.5" cy="29.085" r="0.5" fill="#97999B"/>
        <circle cx="0.5" cy="42.8857" r="0.5" fill="#97999B"/>
        <circle cx="0.5" cy="56.6855" r="0.5" fill="#97999B"/>
        <circle cx="0.5" cy="70.4854" r="0.5" fill="#97999B"/>
        <circle cx="0.5" cy="84.2852" r="0.5" fill="#97999B"/>
        <circle cx="0.5" cy="98.085" r="0.5" fill="#97999B"/>
        <circle cx="0.5" cy="111.886" r="0.5" fill="#97999B"/>
        <circle cx="0.5" cy="125.686" r="0.5" fill="#97999B"/>
        <circle cx="0.5" cy="139.485" r="0.5" fill="#97999B"/>
        <circle cx="0.5" cy="153.285" r="0.5" fill="#97999B"/>
        <circle cx="0.5" cy="167.085" r="0.5" fill="#97999B"/>
        <circle cx="0.5" cy="180.886" r="0.5" fill="#97999B"/>
        <circle cx="0.5" cy="194.686" r="0.5" fill="#97999B"/>
        <circle cx="0.5" cy="208.485" r="0.5" fill="#97999B"/>
        <circle cx="15.6499" cy="1.48535" r="0.5" fill="#97999B"/>
        <circle cx="15.6499" cy="15.2852" r="0.5" fill="#97999B"/>
        <circle cx="15.6499" cy="29.085" r="0.5" fill="#97999B"/>
        <circle cx="15.6499" cy="42.8857" r="0.5" fill="#97999B"/>
        <circle cx="15.6499" cy="56.6855" r="0.5" fill="#97999B"/>
        <circle cx="15.6499" cy="70.4854" r="0.5" fill="#97999B"/>
        <circle cx="15.6499" cy="84.2852" r="0.5" fill="#97999B"/>
        <circle cx="15.6499" cy="98.085" r="0.5" fill="#97999B"/>
        <circle cx="15.6499" cy="111.886" r="0.5" fill="#97999B"/>
        <circle cx="15.6499" cy="125.686" r="0.5" fill="#97999B"/>
        <circle cx="15.6499" cy="139.485" r="0.5" fill="#97999B"/>
        <circle cx="15.6499" cy="153.285" r="0.5" fill="#97999B"/>
        <circle cx="15.6499" cy="167.085" r="0.5" fill="#97999B"/>
        <circle cx="15.6499" cy="180.886" r="0.5" fill="#97999B"/>
        <circle cx="15.6499" cy="194.686" r="0.5" fill="#97999B"/>
        <circle cx="15.6499" cy="208.485" r="0.5" fill="#97999B"/>
        <circle cx="30.7998" cy="1.48535" r="0.5" fill="#97999B"/>
        <circle cx="30.7998" cy="15.2852" r="0.5" fill="#97999B"/>
        <circle cx="30.7998" cy="29.085" r="0.5" fill="#97999B"/>
        <circle cx="30.7998" cy="42.8857" r="0.5" fill="#97999B"/>
        <circle cx="30.7998" cy="56.6855" r="0.5" fill="#97999B"/>
        <circle cx="30.7998" cy="70.4854" r="0.5" fill="#97999B"/>
        <circle cx="30.7998" cy="84.2852" r="0.5" fill="#97999B"/>
        <circle cx="30.7998" cy="98.085" r="0.5" fill="#97999B"/>
        <circle cx="30.7998" cy="111.886" r="0.5" fill="#97999B"/>
        <circle cx="30.7998" cy="125.686" r="0.5" fill="#97999B"/>
        <circle cx="30.7998" cy="139.485" r="0.5" fill="#97999B"/>
        <circle cx="30.7998" cy="153.285" r="0.5" fill="#97999B"/>
        <circle cx="30.7998" cy="167.085" r="0.5" fill="#97999B"/>
        <circle cx="30.7998" cy="180.886" r="0.5" fill="#97999B"/>
        <circle cx="30.7998" cy="194.686" r="0.5" fill="#97999B"/>
        <circle cx="30.7998" cy="208.485" r="0.5" fill="#97999B"/>
        <circle cx="45.9502" cy="1.48535" r="0.5" fill="#97999B"/>
        <circle cx="45.9502" cy="15.2852" r="0.5" fill="#97999B"/>
        <circle cx="45.9502" cy="29.085" r="0.5" fill="#97999B"/>
        <circle cx="45.9502" cy="42.8857" r="0.5" fill="#97999B"/>
        <circle cx="45.9502" cy="56.6855" r="0.5" fill="#97999B"/>
        <circle cx="45.9502" cy="70.4854" r="0.5" fill="#97999B"/>
        <circle cx="45.9502" cy="84.2852" r="0.5" fill="#97999B"/>
        <circle cx="45.9502" cy="98.085" r="0.5" fill="#97999B"/>
        <circle cx="45.9502" cy="111.886" r="0.5" fill="#97999B"/>
        <circle cx="45.9502" cy="125.686" r="0.5" fill="#97999B"/>
        <circle cx="45.9502" cy="139.485" r="0.5" fill="#97999B"/>
        <circle cx="45.9502" cy="153.285" r="0.5" fill="#97999B"/>
        <circle cx="45.9502" cy="167.085" r="0.5" fill="#97999B"/>
        <circle cx="45.9502" cy="180.886" r="0.5" fill="#97999B"/>
        <circle cx="45.9502" cy="194.686" r="0.5" fill="#97999B"/>
        <circle cx="45.9502" cy="208.485" r="0.5" fill="#97999B"/>
        <circle cx="61.1001" cy="1.48535" r="0.5" fill="#97999B"/>
        <circle cx="61.1001" cy="15.2852" r="0.5" fill="#97999B"/>
        <circle cx="61.1001" cy="29.085" r="0.5" fill="#97999B"/>
        <circle cx="61.1001" cy="42.8857" r="0.5" fill="#97999B"/>
        <circle cx="61.1001" cy="56.6855" r="0.5" fill="#97999B"/>
        <circle cx="61.1001" cy="70.4854" r="0.5" fill="#97999B"/>
        <circle cx="61.1001" cy="84.2852" r="0.5" fill="#97999B"/>
        <circle cx="61.1001" cy="98.085" r="0.5" fill="#97999B"/>
        <circle cx="61.1001" cy="111.886" r="0.5" fill="#97999B"/>
        <circle cx="61.1001" cy="125.686" r="0.5" fill="#97999B"/>
        <circle cx="61.1001" cy="139.485" r="0.5" fill="#97999B"/>
        <circle cx="61.1001" cy="153.285" r="0.5" fill="#97999B"/>
        <circle cx="61.1001" cy="167.085" r="0.5" fill="#97999B"/>
        <circle cx="61.1001" cy="180.886" r="0.5" fill="#97999B"/>
        <circle cx="61.1001" cy="194.686" r="0.5" fill="#97999B"/>
        <circle cx="61.1001" cy="208.485" r="0.5" fill="#97999B"/>
        <circle cx="76.25" cy="1.48535" r="0.5" fill="#97999B"/>
        <circle cx="76.25" cy="15.2852" r="0.5" fill="#97999B"/>
        <circle cx="76.25" cy="29.085" r="0.5" fill="#97999B"/>
        <circle cx="76.25" cy="42.8857" r="0.5" fill="#97999B"/>
        <circle cx="76.25" cy="56.6855" r="0.5" fill="#97999B"/>
        <circle cx="76.25" cy="70.4854" r="0.5" fill="#97999B"/>
        <circle cx="76.25" cy="84.2852" r="0.5" fill="#97999B"/>
        <circle cx="76.25" cy="98.085" r="0.5" fill="#97999B"/>
        <circle cx="76.25" cy="111.886" r="0.5" fill="#97999B"/>
        <circle cx="76.25" cy="125.686" r="0.5" fill="#97999B"/>
        <circle cx="76.25" cy="139.485" r="0.5" fill="#97999B"/>
        <circle cx="76.25" cy="153.285" r="0.5" fill="#97999B"/>
        <circle cx="76.25" cy="167.085" r="0.5" fill="#97999B"/>
        <circle cx="76.25" cy="180.886" r="0.5" fill="#97999B"/>
        <circle cx="76.25" cy="194.686" r="0.5" fill="#97999B"/>
        <circle cx="76.25" cy="208.485" r="0.5" fill="#97999B"/>
        <circle cx="91.3999" cy="1.48535" r="0.5" fill="#97999B"/>
        <circle cx="91.3999" cy="15.2852" r="0.5" fill="#97999B"/>
        <circle cx="91.3999" cy="29.085" r="0.5" fill="#97999B"/>
        <circle cx="91.3999" cy="42.8857" r="0.5" fill="#97999B"/>
        <circle cx="91.3999" cy="56.6855" r="0.5" fill="#97999B"/>
        <circle cx="91.3999" cy="70.4854" r="0.5" fill="#97999B"/>
        <circle cx="91.3999" cy="84.2852" r="0.5" fill="#97999B"/>
        <circle cx="91.3999" cy="98.085" r="0.5" fill="#97999B"/>
        <circle cx="91.3999" cy="111.886" r="0.5" fill="#97999B"/>
        <circle cx="91.3999" cy="125.686" r="0.5" fill="#97999B"/>
        <circle cx="91.3999" cy="139.485" r="0.5" fill="#97999B"/>
        <circle cx="91.3999" cy="153.285" r="0.5" fill="#97999B"/>
        <circle cx="91.3999" cy="167.085" r="0.5" fill="#97999B"/>
        <circle cx="91.3999" cy="180.886" r="0.5" fill="#97999B"/>
        <circle cx="91.3999" cy="194.686" r="0.5" fill="#97999B"/>
        <circle cx="91.3999" cy="208.485" r="0.5" fill="#97999B"/>
        <circle cx="106.55" cy="1.48535" r="0.5" fill="#97999B"/>
        <circle cx="106.55" cy="15.2852" r="0.5" fill="#97999B"/>
        <circle cx="106.55" cy="29.085" r="0.5" fill="#97999B"/>
        <circle cx="106.55" cy="42.8857" r="0.5" fill="#97999B"/>
        <circle cx="106.55" cy="56.6855" r="0.5" fill="#97999B"/>
        <circle cx="106.55" cy="70.4854" r="0.5" fill="#97999B"/>
        <circle cx="106.55" cy="84.2852" r="0.5" fill="#97999B"/>
        <circle cx="106.55" cy="98.085" r="0.5" fill="#97999B"/>
        <circle cx="106.55" cy="111.886" r="0.5" fill="#97999B"/>
        <circle cx="106.55" cy="125.686" r="0.5" fill="#97999B"/>
        <circle cx="106.55" cy="139.485" r="0.5" fill="#97999B"/>
        <circle cx="106.55" cy="153.285" r="0.5" fill="#97999B"/>
        <circle cx="106.55" cy="167.085" r="0.5" fill="#97999B"/>
        <circle cx="106.55" cy="180.886" r="0.5" fill="#97999B"/>
        <circle cx="106.55" cy="194.686" r="0.5" fill="#97999B"/>
        <circle cx="106.55" cy="208.485" r="0.5" fill="#97999B"/>
        <circle cx="121.7" cy="1.48535" r="0.5" fill="#97999B"/>
        <circle cx="121.7" cy="15.2852" r="0.5" fill="#97999B"/>
        <circle cx="121.7" cy="29.085" r="0.5" fill="#97999B"/>
        <circle cx="121.7" cy="42.8857" r="0.5" fill="#97999B"/>
        <circle cx="121.7" cy="56.6855" r="0.5" fill="#97999B"/>
        <circle cx="121.7" cy="70.4854" r="0.5" fill="#97999B"/>
        <circle cx="121.7" cy="84.2852" r="0.5" fill="#97999B"/>
        <circle cx="121.7" cy="98.085" r="0.5" fill="#97999B"/>
        <circle cx="121.7" cy="111.886" r="0.5" fill="#97999B"/>
        <circle cx="121.7" cy="125.686" r="0.5" fill="#97999B"/>
        <circle cx="121.7" cy="139.485" r="0.5" fill="#97999B"/>
        <circle cx="121.7" cy="153.285" r="0.5" fill="#97999B"/>
        <circle cx="121.7" cy="167.085" r="0.5" fill="#97999B"/>
        <circle cx="121.7" cy="180.886" r="0.5" fill="#97999B"/>
        <circle cx="121.7" cy="194.686" r="0.5" fill="#97999B"/>
        <circle cx="121.7" cy="208.485" r="0.5" fill="#97999B"/>
        <circle cx="136.85" cy="1.48535" r="0.5" fill="#97999B"/>
        <circle cx="136.85" cy="15.2852" r="0.5" fill="#97999B"/>
        <circle cx="136.85" cy="29.085" r="0.5" fill="#97999B"/>
        <circle cx="136.85" cy="42.8857" r="0.5" fill="#97999B"/>
        <circle cx="136.85" cy="56.6855" r="0.5" fill="#97999B"/>
        <circle cx="136.85" cy="70.4854" r="0.5" fill="#97999B"/>
        <circle cx="136.85" cy="84.2852" r="0.5" fill="#97999B"/>
        <circle cx="136.85" cy="98.085" r="0.5" fill="#97999B"/>
        <circle cx="136.85" cy="111.886" r="0.5" fill="#97999B"/>
        <circle cx="136.85" cy="125.686" r="0.5" fill="#97999B"/>
        <circle cx="136.85" cy="139.485" r="0.5" fill="#97999B"/>
        <circle cx="136.85" cy="153.285" r="0.5" fill="#97999B"/>
        <circle cx="136.85" cy="167.085" r="0.5" fill="#97999B"/>
        <circle cx="136.85" cy="180.886" r="0.5" fill="#97999B"/>
        <circle cx="136.85" cy="194.686" r="0.5" fill="#97999B"/>
        <circle cx="136.85" cy="208.485" r="0.5" fill="#97999B"/>
        <circle cx="152" cy="1.48535" r="0.5" fill="#97999B"/>
        <circle cx="152" cy="15.2852" r="0.5" fill="#97999B"/>
        <circle cx="152" cy="29.085" r="0.5" fill="#97999B"/>
        <circle cx="152" cy="42.8857" r="0.5" fill="#97999B"/>
        <circle cx="152" cy="56.6855" r="0.5" fill="#97999B"/>
        <circle cx="152" cy="70.4854" r="0.5" fill="#97999B"/>
        <circle cx="152" cy="84.2852" r="0.5" fill="#97999B"/>
        <circle cx="152" cy="98.085" r="0.5" fill="#97999B"/>
        <circle cx="152" cy="111.886" r="0.5" fill="#97999B"/>
        <circle cx="152" cy="125.686" r="0.5" fill="#97999B"/>
        <circle cx="152" cy="139.485" r="0.5" fill="#97999B"/>
        <circle cx="152" cy="153.285" r="0.5" fill="#97999B"/>
        <circle cx="152" cy="167.085" r="0.5" fill="#97999B"/>
        <circle cx="152" cy="180.886" r="0.5" fill="#97999B"/>
        <circle cx="152" cy="194.686" r="0.5" fill="#97999B"/>
        <circle cx="152" cy="208.485" r="0.5" fill="#97999B"/>
        <circle cx="167.15" cy="1.48535" r="0.5" fill="#97999B"/>
        <circle cx="167.15" cy="15.2852" r="0.5" fill="#97999B"/>
        <circle cx="167.15" cy="29.085" r="0.5" fill="#97999B"/>
        <circle cx="167.15" cy="42.8857" r="0.5" fill="#97999B"/>
        <circle cx="167.15" cy="56.6855" r="0.5" fill="#97999B"/>
        <circle cx="167.15" cy="70.4854" r="0.5" fill="#97999B"/>
        <circle cx="167.15" cy="84.2852" r="0.5" fill="#97999B"/>
        <circle cx="167.15" cy="98.085" r="0.5" fill="#97999B"/>
        <circle cx="167.15" cy="111.886" r="0.5" fill="#97999B"/>
        <circle cx="167.15" cy="125.686" r="0.5" fill="#97999B"/>
        <circle cx="167.15" cy="139.485" r="0.5" fill="#97999B"/>
        <circle cx="167.15" cy="153.285" r="0.5" fill="#97999B"/>
        <circle cx="167.15" cy="167.085" r="0.5" fill="#97999B"/>
        <circle cx="167.15" cy="180.886" r="0.5" fill="#97999B"/>
        <circle cx="167.15" cy="194.686" r="0.5" fill="#97999B"/>
        <circle cx="167.15" cy="208.485" r="0.5" fill="#97999B"/>
        <circle cx="182.3" cy="1.48535" r="0.5" fill="#97999B"/>
        <circle cx="182.3" cy="15.2852" r="0.5" fill="#97999B"/>
        <circle cx="182.3" cy="29.085" r="0.5" fill="#97999B"/>
        <circle cx="182.3" cy="42.8857" r="0.5" fill="#97999B"/>
        <circle cx="182.3" cy="56.6855" r="0.5" fill="#97999B"/>
        <circle cx="182.3" cy="70.4854" r="0.5" fill="#97999B"/>
        <circle cx="182.3" cy="84.2852" r="0.5" fill="#97999B"/>
        <circle cx="182.3" cy="98.085" r="0.5" fill="#97999B"/>
        <circle cx="182.3" cy="111.886" r="0.5" fill="#97999B"/>
        <circle cx="182.3" cy="125.686" r="0.5" fill="#97999B"/>
        <circle cx="182.3" cy="139.485" r="0.5" fill="#97999B"/>
        <circle cx="182.3" cy="153.285" r="0.5" fill="#97999B"/>
        <circle cx="182.3" cy="167.085" r="0.5" fill="#97999B"/>
        <circle cx="182.3" cy="180.886" r="0.5" fill="#97999B"/>
        <circle cx="182.3" cy="194.686" r="0.5" fill="#97999B"/>
        <circle cx="182.3" cy="208.485" r="0.5" fill="#97999B"/>
        <circle cx="197.45" cy="1.48535" r="0.5" fill="#97999B"/>
        <circle cx="197.45" cy="15.2852" r="0.5" fill="#97999B"/>
        <circle cx="197.45" cy="29.085" r="0.5" fill="#97999B"/>
        <circle cx="197.45" cy="42.8857" r="0.5" fill="#97999B"/>
        <circle cx="197.45" cy="56.6855" r="0.5" fill="#97999B"/>
        <circle cx="197.45" cy="70.4854" r="0.5" fill="#97999B"/>
        <circle cx="197.45" cy="84.2852" r="0.5" fill="#97999B"/>
        <circle cx="197.45" cy="98.085" r="0.5" fill="#97999B"/>
        <circle cx="197.45" cy="111.886" r="0.5" fill="#97999B"/>
        <circle cx="197.45" cy="125.686" r="0.5" fill="#97999B"/>
        <circle cx="197.45" cy="139.485" r="0.5" fill="#97999B"/>
        <circle cx="197.45" cy="153.285" r="0.5" fill="#97999B"/>
        <circle cx="197.45" cy="167.085" r="0.5" fill="#97999B"/>
        <circle cx="197.45" cy="180.886" r="0.5" fill="#97999B"/>
        <circle cx="197.45" cy="194.686" r="0.5" fill="#97999B"/>
        <circle cx="197.45" cy="208.485" r="0.5" fill="#97999B"/>
        <circle cx="212.6" cy="1.48535" r="0.5" fill="#97999B"/>
        <circle cx="212.6" cy="15.2852" r="0.5" fill="#97999B"/>
        <circle cx="212.6" cy="29.085" r="0.5" fill="#97999B"/>
        <circle cx="212.6" cy="42.8857" r="0.5" fill="#97999B"/>
        <circle cx="212.6" cy="56.6855" r="0.5" fill="#97999B"/>
        <circle cx="212.6" cy="70.4854" r="0.5" fill="#97999B"/>
        <circle cx="212.6" cy="84.2852" r="0.5" fill="#97999B"/>
        <circle cx="212.6" cy="98.085" r="0.5" fill="#97999B"/>
        <circle cx="212.6" cy="111.886" r="0.5" fill="#97999B"/>
        <circle cx="212.6" cy="125.686" r="0.5" fill="#97999B"/>
        <circle cx="212.6" cy="139.485" r="0.5" fill="#97999B"/>
        <circle cx="212.6" cy="153.285" r="0.5" fill="#97999B"/>
        <circle cx="212.6" cy="167.085" r="0.5" fill="#97999B"/>
        <circle cx="212.6" cy="180.886" r="0.5" fill="#97999B"/>
        <circle cx="212.6" cy="194.686" r="0.5" fill="#97999B"/>
        <circle cx="212.6" cy="208.485" r="0.5" fill="#97999B"/>
        <circle cx="227.75" cy="1.48535" r="0.5" fill="#97999B"/>
        <circle cx="227.75" cy="15.2852" r="0.5" fill="#97999B"/>
        <circle cx="227.75" cy="29.085" r="0.5" fill="#97999B"/>
        <circle cx="227.75" cy="42.8857" r="0.5" fill="#97999B"/>
        <circle cx="227.75" cy="56.6855" r="0.5" fill="#97999B"/>
        <circle cx="227.75" cy="70.4854" r="0.5" fill="#97999B"/>
        <circle cx="227.75" cy="84.2852" r="0.5" fill="#97999B"/>
        <circle cx="227.75" cy="98.085" r="0.5" fill="#97999B"/>
        <circle cx="227.75" cy="111.886" r="0.5" fill="#97999B"/>
        <circle cx="227.75" cy="125.686" r="0.5" fill="#97999B"/>
        <circle cx="227.75" cy="139.485" r="0.5" fill="#97999B"/>
        <circle cx="227.75" cy="153.285" r="0.5" fill="#97999B"/>
        <circle cx="227.75" cy="167.085" r="0.5" fill="#97999B"/>
        <circle cx="227.75" cy="180.886" r="0.5" fill="#97999B"/>
        <circle cx="227.75" cy="194.686" r="0.5" fill="#97999B"/>
        <circle cx="227.75" cy="208.485" r="0.5" fill="#97999B"/>
        <circle cx="242.9" cy="1.48535" r="0.5" fill="#97999B"/>
        <circle cx="242.9" cy="15.2852" r="0.5" fill="#97999B"/>
        <circle cx="242.9" cy="29.085" r="0.5" fill="#97999B"/>
        <circle cx="242.9" cy="42.8857" r="0.5" fill="#97999B"/>
        <circle cx="242.9" cy="56.6855" r="0.5" fill="#97999B"/>
        <circle cx="242.9" cy="70.4854" r="0.5" fill="#97999B"/>
        <circle cx="242.9" cy="84.2852" r="0.5" fill="#97999B"/>
        <circle cx="242.9" cy="98.085" r="0.5" fill="#97999B"/>
        <circle cx="242.9" cy="111.886" r="0.5" fill="#97999B"/>
        <circle cx="242.9" cy="125.686" r="0.5" fill="#97999B"/>
        <circle cx="242.9" cy="139.485" r="0.5" fill="#97999B"/>
        <circle cx="242.9" cy="153.285" r="0.5" fill="#97999B"/>
        <circle cx="242.9" cy="167.085" r="0.5" fill="#97999B"/>
        <circle cx="242.9" cy="180.886" r="0.5" fill="#97999B"/>
        <circle cx="242.9" cy="194.686" r="0.5" fill="#97999B"/>
        <circle cx="242.9" cy="208.485" r="0.5" fill="#97999B"/>
        <circle cx="258.05" cy="1.48535" r="0.5" fill="#97999B"/>
        <circle cx="258.05" cy="15.2852" r="0.5" fill="#97999B"/>
        <circle cx="258.05" cy="29.085" r="0.5" fill="#97999B"/>
        <circle cx="258.05" cy="42.8857" r="0.5" fill="#97999B"/>
        <circle cx="258.05" cy="56.6855" r="0.5" fill="#97999B"/>
        <circle cx="258.05" cy="70.4854" r="0.5" fill="#97999B"/>
        <circle cx="258.05" cy="84.2852" r="0.5" fill="#97999B"/>
        <circle cx="258.05" cy="98.085" r="0.5" fill="#97999B"/>
        <circle cx="258.05" cy="111.886" r="0.5" fill="#97999B"/>
        <circle cx="258.05" cy="125.686" r="0.5" fill="#97999B"/>
        <circle cx="258.05" cy="139.485" r="0.5" fill="#97999B"/>
        <circle cx="258.05" cy="153.285" r="0.5" fill="#97999B"/>
        <circle cx="258.05" cy="167.085" r="0.5" fill="#97999B"/>
        <circle cx="258.05" cy="180.886" r="0.5" fill="#97999B"/>
        <circle cx="258.05" cy="194.686" r="0.5" fill="#97999B"/>
        <circle cx="258.05" cy="208.485" r="0.5" fill="#97999B"/>
        <circle cx="273.2" cy="1.48535" r="0.5" fill="#97999B"/>
        <circle cx="273.2" cy="15.2852" r="0.5" fill="#97999B"/>
        <circle cx="273.2" cy="29.085" r="0.5" fill="#97999B"/>
        <circle cx="273.2" cy="42.8857" r="0.5" fill="#97999B"/>
        <circle cx="273.2" cy="56.6855" r="0.5" fill="#97999B"/>
        <circle cx="273.2" cy="70.4854" r="0.5" fill="#97999B"/>
        <circle cx="273.2" cy="84.2852" r="0.5" fill="#97999B"/>
        <circle cx="273.2" cy="98.085" r="0.5" fill="#97999B"/>
        <circle cx="273.2" cy="111.886" r="0.5" fill="#97999B"/>
        <circle cx="273.2" cy="125.686" r="0.5" fill="#97999B"/>
        <circle cx="273.2" cy="139.485" r="0.5" fill="#97999B"/>
        <circle cx="273.2" cy="153.285" r="0.5" fill="#97999B"/>
        <circle cx="273.2" cy="167.085" r="0.5" fill="#97999B"/>
        <circle cx="273.2" cy="180.886" r="0.5" fill="#97999B"/>
        <circle cx="273.2" cy="194.686" r="0.5" fill="#97999B"/>
        <circle cx="273.2" cy="208.485" r="0.5" fill="#97999B"/>
        <circle cx="288.35" cy="1.48535" r="0.5" fill="#97999B"/>
        <circle cx="288.35" cy="15.2852" r="0.5" fill="#97999B"/>
        <circle cx="288.35" cy="29.085" r="0.5" fill="#97999B"/>
        <circle cx="288.35" cy="42.8857" r="0.5" fill="#97999B"/>
        <circle cx="288.35" cy="56.6855" r="0.5" fill="#97999B"/>
        <circle cx="288.35" cy="70.4854" r="0.5" fill="#97999B"/>
        <circle cx="288.35" cy="84.2852" r="0.5" fill="#97999B"/>
        <circle cx="288.35" cy="98.085" r="0.5" fill="#97999B"/>
        <circle cx="288.35" cy="111.886" r="0.5" fill="#97999B"/>
        <circle cx="288.35" cy="125.686" r="0.5" fill="#97999B"/>
        <circle cx="288.35" cy="139.485" r="0.5" fill="#97999B"/>
        <circle cx="288.35" cy="153.285" r="0.5" fill="#97999B"/>
        <circle cx="288.35" cy="167.085" r="0.5" fill="#97999B"/>
        <circle cx="288.35" cy="180.886" r="0.5" fill="#97999B"/>
        <circle cx="288.35" cy="194.686" r="0.5" fill="#97999B"/>
        <circle cx="288.35" cy="208.485" r="0.5" fill="#97999B"/>
        <circle cx="303.5" cy="1.48535" r="0.5" fill="#97999B"/>
        <circle cx="303.5" cy="15.2852" r="0.5" fill="#97999B"/>
        <circle cx="303.5" cy="29.085" r="0.5" fill="#97999B"/>
        <circle cx="303.5" cy="42.8857" r="0.5" fill="#97999B"/>
        <circle cx="303.5" cy="56.6855" r="0.5" fill="#97999B"/>
        <circle cx="303.5" cy="70.4854" r="0.5" fill="#97999B"/>
        <circle cx="303.5" cy="84.2852" r="0.5" fill="#97999B"/>
        <circle cx="303.5" cy="98.085" r="0.5" fill="#97999B"/>
        <circle cx="303.5" cy="111.886" r="0.5" fill="#97999B"/>
        <circle cx="303.5" cy="125.686" r="0.5" fill="#97999B"/>
        <circle cx="303.5" cy="139.485" r="0.5" fill="#97999B"/>
        <circle cx="303.5" cy="153.285" r="0.5" fill="#97999B"/>
        <circle cx="303.5" cy="167.085" r="0.5" fill="#97999B"/>
        <circle cx="303.5" cy="180.886" r="0.5" fill="#97999B"/>
        <circle cx="303.5" cy="194.686" r="0.5" fill="#97999B"/>
        <circle cx="303.5" cy="208.485" r="0.5" fill="#97999B"/>
        <path d="M75.3558 155.493C75.0292 147.852 80.902 143.825 85.9408 142.757C71.7812 78.9743 108.651 60.2843 135.241 53.5441C144.362 36.9256 157.429 30.1654 169.087 26.1896C178.413 23.0089 187.023 22.0335 190.163 21.9434L190.896 33.6392L196.3 40.7802C196.428 40.814 198.899 41.513 207.769 44.0391C205.103 51.3369 195.7 62.7048 191.63 66.0028C188.374 68.6413 183.226 69.5543 181.058 69.6811C182.459 73.3914 182.846 88.1586 174.107 102.301C164.063 118.554 164.196 118.52 163.438 130.08C162.68 141.639 166.241 146.375 167.314 149.078C174.071 147.289 177.243 153.438 176.421 154.638C165.051 154.638 135.28 154.135 117.24 154.135C149.456 157.925 167.314 182.152 154.21 193.266C139.24 205.962 139.033 185.278 119.862 178.952C103.153 173.438 75.9266 168.845 75.3558 155.493Z" fill="white"/>
        <path d="M182.537 124.79C174.043 120.186 169.397 110.682 149.618 91.3184C143.508 90.7641 133.16 93.6544 140.649 109.65C150.01 129.644 180.504 136.107 191.331 137.941C202.158 139.775 200.695 130.719 195.413 129.954C192.714 129.563 188.596 128.074 182.537 124.79Z" fill="white"/>
        <path fill-rule="evenodd" clip-rule="evenodd" d="M154.024 31.0877C153.884 30.8918 153.612 30.8466 153.416 30.9867C153.22 31.1269 153.175 31.3993 153.315 31.5952L162.718 44.7406C162.384 45.4735 162.115 46.2283 161.907 46.9982L147.25 34.2042C147.069 34.0458 146.793 34.0645 146.635 34.2459C146.477 34.4274 146.495 34.7029 146.677 34.8613L161.682 47.9591C161.572 48.5084 161.492 49.0636 161.441 49.6224L144.041 39.8662C143.831 39.7484 143.565 39.8232 143.447 40.0333C143.329 40.2434 143.404 40.5093 143.614 40.627L161.383 50.5897C161.215 56.0993 163.823 61.8194 168.425 65.4697C172.022 68.3225 177.229 70.3123 181.136 70.2148C182.719 70.1753 184.657 69.7173 186.57 68.9848L196.739 78.3386C196.916 78.5017 197.192 78.4902 197.355 78.3129C197.518 78.1356 197.507 77.8597 197.33 77.6966L187.464 68.6217C187.935 68.4188 188.402 68.2004 188.857 67.9685L205.125 78.0522C205.329 78.1791 205.598 78.116 205.725 77.9113C205.852 77.7066 205.789 77.4377 205.584 77.3108L189.744 67.4918C190.28 67.1873 190.794 66.865 191.274 66.5288L204.944 71.8528C205.169 71.9402 205.421 71.8291 205.509 71.6046C205.596 71.3802 205.485 71.1274 205.261 71.04L192.096 65.9129C192.277 65.767 192.452 65.6192 192.618 65.4697C195.493 62.8926 196.277 61.1776 195.7 58.4145C195.137 55.7181 192.688 53.2908 188.662 49.3024C187.909 48.5556 187.1 47.7541 186.238 46.8859C185.494 46.1369 184.779 45.394 184.085 44.6726C180.523 40.9692 177.507 37.8334 173.91 37.3628C171.614 37.0623 168.201 38.0097 165.724 40.4532C164.67 41.4923 163.819 42.6384 163.159 43.8568L154.024 31.0877ZM192.096 65.9129L178.878 60.7652C178.683 60.6891 178.461 60.7629 178.35 60.9409C178.239 61.1189 178.27 61.3506 178.425 61.4926L186.57 68.9848C186.869 68.8703 187.167 68.7491 187.464 68.6217L182.406 63.9698L188.857 67.9685C189.158 67.8152 189.454 67.6561 189.744 67.4918L182.978 63.298L191.274 66.5288C191.56 66.3281 191.835 66.1225 192.096 65.9129ZM163.159 43.8568C163.001 44.1475 162.854 44.4422 162.718 44.7406L168.367 52.6367L161.907 46.9982C161.822 47.3161 161.747 47.6366 161.682 47.9591L167.442 52.9868L161.441 49.6224C161.412 49.9438 161.393 50.2664 161.383 50.5897L170.684 55.8048C170.862 55.9048 171.086 55.8676 171.222 55.7154C171.359 55.5632 171.371 55.3368 171.252 55.1707L163.159 43.8568Z" fill="black"/>
        <path d="M86.807 145.106C71.7953 77.9286 110.59 59.3451 135.397 53.626" stroke="black"/>
        <path d="M37.252 154.422H69.7624M202.769 154.422H112.03" stroke="black" stroke-linecap="round"/>
        <path d="M168.696 148.655C173.452 149.036 175.902 150.46 176.539 154.068" stroke="black" stroke-linecap="round"/>
        <path d="M152.865 92.4785C171.96 112.17 175.509 125.077 197.19 130.646" stroke="black" stroke-linecap="round"/>
        <path d="M194.696 139.012C108.796 129.632 107.412 28.8763 190.207 22.1035L190.863 33.5571L196.467 40.862L207.769 44.0249C206.932 46.0249 204.849 50.5831 203.211 52.8157C201.165 55.6065 190.978 72.6766 177.676 69.1417" stroke="black" stroke-linecap="round" stroke-linejoin="round"/>
        <path d="M171.004 43.7285C171.262 45.9478 172.314 49.3362 174.838 50.1307" stroke="white" stroke-width="1.5" stroke-linecap="round"/>
        <path d="M184.05 58.043C186 59.8305 187.319 60.2243 190.081 60.7117" stroke="white" stroke-width="1.5" stroke-linecap="round"/>
        <path d="M178.549 28.7451C177.766 28.495 177.181 28.3082 176.784 28.1784C176.585 28.1133 176.437 28.0637 176.336 28.028C176.326 28.0246 176.318 28.0215 176.309 28.0185C176.315 28.0165 176.322 28.0144 176.329 28.0123C176.426 27.9822 176.568 27.9408 176.759 27.8868C177.139 27.7789 177.699 27.6246 178.449 27.4179L186.16 25.2942C186.658 25.1569 186.835 25.1111 186.971 25.1053C187.553 25.0807 188.081 25.4438 188.267 25.9961C188.31 26.125 188.331 26.3067 188.381 26.8214L189.156 34.7466C189.189 35.0821 189.213 35.3282 189.227 35.4994C189.233 35.566 189.236 35.6178 189.238 35.6569C189.208 35.6272 189.168 35.5868 189.117 35.5338C188.99 35.4028 188.81 35.211 188.565 34.9502C187.404 33.7128 185.574 32.1083 182.896 30.6325C181.302 29.7544 179.83 29.1546 178.549 28.7451ZM189.263 35.681C189.263 35.681 189.263 35.681 189.263 35.681L189.263 35.681Z" fill="black" stroke="black" stroke-width="0.872263"/>
        <path d="M174.533 58.1685C173.322 57.1818 172.716 56.6884 172.683 56.6699C172.318 56.4664 172.06 56.608 172.035 57.0246C172.032 57.0627 172.113 57.7589 172.273 59.1513L172.304 59.4187C172.351 59.8237 172.374 60.0263 172.423 60.1833C172.669 60.9725 173.436 61.4803 174.259 61.3994C174.423 61.3833 174.618 61.3258 175.009 61.2108L176.029 60.9108C176.734 60.7037 177.086 60.6001 177.142 60.5629C177.408 60.3845 177.436 60.1372 177.218 59.9029C177.172 59.8541 176.818 59.6535 176.11 59.2523C175.625 58.9774 175.091 58.6234 174.533 58.1685Z" fill="#C4D600"/>
        <path d="M199.984 53.5008C199.986 50.5589 199.329 47.5315 196.014 43.7285L205.056 45.9895C205.359 46.0653 205.485 46.4273 205.297 46.6765C202.959 49.7664 202.183 50.7008 199.984 53.5008Z" fill="black" stroke="black" stroke-width="0.872263" stroke-linecap="round" stroke-linejoin="round"/>
        <path d="M181.2 71.2773C182.059 89.7519 175.293 102.426 171.802 106.454" stroke="black" stroke-linecap="round"/>
        <path d="M163.691 134.302C164.336 149.339 168.026 150.556 169.1 150.824" stroke="black" stroke-linecap="round"/>
        <path d="M86.1664 168.648C70.5016 163.337 71.2512 146.33 86.1659 142.538C87.1742 146.398 87.2661 151.355 98.7805 152.497L99.1333 152.532C125.035 155.102 148.54 157.433 157.334 176.295C164.989 192.715 146.824 202.729 138.492 192.685C124.109 175.347 107.165 175.768 86.1664 168.648Z" fill="black" stroke="black" stroke-width="0.872263"/>
        <path d="M185.977 127.049C180.918 124.281 172.683 116.293 169.394 111.334C165.236 105.067 147.424 118.522 159.914 127.661C169.163 134.428 184.679 137.837 190.544 138.739C196.409 139.641 199.202 138.363 200.082 136.472C201.237 133.992 199.422 131.231 196.489 130.442C193.557 129.652 190.332 129.431 185.977 127.049Z" fill="black" stroke="black" stroke-width="0.872263"/>
        <path d="M108.833 104.784C132.209 107.061 146.567 129.664 139.933 146.389" stroke="black" stroke-linecap="round"/>
        <path d="M237.617 147.898C239.941 147.268 242.952 148.549 244.597 150.571C246.701 153.157 245.587 158.341 238.777 160.535C233.735 162.16 227.937 159.389 225.096 157.046" stroke="black" stroke-linecap="round"/>
        <path d="M247.082 141.393C240.332 146.128 218.721 161.555 218.721 161.555C218.721 161.555 216.71 161.749 211.054 156.529C205.397 151.308 204.984 148.954 204.984 148.954L214.117 134.138C214.117 134.138 219.976 124.529 223.165 119.319C224.042 117.886 232.126 124.213 236.873 128.606C241.585 132.966 248.2 140.609 247.082 141.393Z" fill="white" stroke="black" stroke-width="1.11058" stroke-linecap="round"/>
        <path d="M254.39 137.717C254.073 138.988 255.586 140.615 254.574 141.549C252.112 143.821 244.279 137.388 241.522 138.787L230.53 129.275C260.35 116.407 267.175 141.357 261.465 138.426C255.925 135.583 254.705 136.453 254.39 137.717Z" fill="black" stroke="black" stroke-width="0.872263"/>
        <path d="M205.507 149.041L209.596 142.57L238.506 138.698C239.14 138.613 239.785 138.733 240.346 139.04L245.808 142.033L218.517 161.224C218.517 161.224 214.498 159.008 210.771 155.568C207.377 152.435 205.507 149.041 205.507 149.041Z" fill="#C4D600"/>
        <path d="M215.33 133.273L230.87 130.606C231.256 130.95 231.073 131.59 230.562 131.677L214.632 134.403L215.33 133.273Z" fill="#C4D600"/>
        <path d="M209.437 142.802L234.992 138.528C236.648 138.251 237.246 136.18 235.993 135.062L235.253 134.403L213.552 138.083C212.703 138.227 211.956 138.73 211.502 139.463L209.437 142.802Z" fill="#C4D600"/>
        <path d="M213.661 135.972C213.327 136.513 213.783 137.197 214.411 137.095L232.415 134.167C233.245 134.032 233.548 132.994 232.92 132.434L232.559 132.112L215.196 134.946C214.56 135.05 214 135.424 213.661 135.972Z" fill="#C4D600"/>
        <path d="M246.903 141.525C245.678 142.786 239.199 137.879 233.263 132.4C227.242 126.843 222 120.605 223.119 119.393" stroke="black" stroke-width="1.11058"/>
    </g>
    <defs>
        <clipPath id="clip0_16731_231485">
            <rect width="304" height="208" fill="white" transform="translate(0 0.985352)"/>
        </clipPath>
    </defs>
</svg>
