<svg width="247" height="101" viewBox="0 0 247 101" fill="none" xmlns="http://www.w3.org/2000/svg">
<path d="M24.0003 57.5C24.2762 57.5002 24.5002 57.7241 24.5003 58C24.5003 58.276 24.2763 58.4998 24.0003 58.5C23.033 58.5 22.2393 58.6225 21.6448 58.8926C21.0697 59.154 20.6762 59.5545 20.4749 60.1582C20.3876 60.42 20.104 60.5617 19.8421 60.4746C19.5802 60.3872 19.4384 60.1037 19.5257 59.8418C19.8244 58.9459 20.4313 58.3459 21.2308 57.9824C22.0112 57.6278 22.9681 57.5 24.0003 57.5Z" fill="white"/>
<path fill-rule="evenodd" clip-rule="evenodd" d="M189 0C213.853 0.000230901 234 20.1473 234 45C234 69.8527 213.853 89.9998 189 90C179.116 90 169.977 86.8112 162.553 81.4082L135.829 78.6885C127.889 85.7257 117.445 89.9999 106 90C94.299 90 83.6414 85.5326 75.638 78.2119L42.4749 70.9297C42.369 71.808 42.0516 72.6507 41.7015 73.3486C41.3579 74.0335 40.9641 74.6156 40.6605 74.999C43.4271 78.1858 46.6309 81.0417 49.3363 83.7939C50.7232 85.2049 51.9737 86.5862 52.929 87.9482C53.8831 89.3086 54.565 90.6806 54.7767 92.0742C55.262 95.2706 53.484 97.6712 51.1419 98.8564C48.8241 100.029 45.8385 100.07 43.804 98.4424C42.7566 97.6044 41.66 96.2152 40.5823 94.5674C39.4987 92.9102 38.4101 90.9533 37.387 88.9473C35.6248 85.492 34.0449 81.8669 32.9993 79.3252C31.8968 81.0274 30.5022 83.0702 28.9554 85.1572C27.295 87.3976 25.4576 89.6984 23.6234 91.6924C21.7946 93.6804 19.9456 95.3897 18.262 96.4258C14.5463 98.7123 10.4232 100.104 7.08625 100.222C5.41846 100.28 3.90278 100.022 2.73274 99.3535C1.54255 98.6734 0.740623 97.5837 0.506175 96.0771C0.505133 96.0704 0.504009 96.0624 0.503246 96.0557C0.000510097 91.5298 0.942137 87.0253 2.29328 83.4932C2.96949 81.7256 3.75265 80.1886 4.51887 79.0049C5.0213 78.2288 5.53621 77.5775 6.02473 77.1133C5.80396 77.0429 5.60116 76.9496 5.41828 76.833C4.90366 76.5047 4.57932 76.0341 4.38606 75.5752C4.19424 75.1192 4.12146 74.6523 4.12141 74.29C4.12147 74.1119 4.13902 73.9334 4.18196 73.7842C4.20261 73.7127 4.2385 73.6157 4.30305 73.5264C4.36453 73.4415 4.51508 73.2824 4.76496 73.2822C4.69936 73.2823 4.69579 73.298 4.79719 73.2568C4.8737 73.2257 4.98039 73.1745 5.10578 73.1006C5.35692 72.9525 5.66685 72.7247 5.95832 72.415C6.53551 71.8016 7.03544 70.8748 6.89094 69.5742C6.72515 68.0816 6.39237 64.3394 7.05891 60.2568C7.72479 56.1794 9.40135 51.6838 13.3216 48.7861C20.8791 43.2004 30.3212 45.8119 33.2454 51.3691C33.9705 50.9159 34.8267 50.611 35.8323 50.5146L64.3499 27.9385C64.3416 27.9589 64.3339 27.9796 64.3255 28C71.0324 11.5754 87.1633 0 106 0C121.549 0.000144481 135.254 7.8875 143.337 19.8789L155.067 15.4453C155.019 15.5005 154.972 15.5569 154.924 15.6123C163.175 6.0518 175.38 0 189 0ZM34.4261 51.8799C33.01 52.4801 32.0651 53.7009 31.4476 55.1572C30.6151 57.1211 30.4188 59.441 30.4993 60.9736L29.5003 61.0264C29.4144 59.3926 29.619 56.9113 30.5277 54.7676C30.6622 54.4503 30.8152 54.1391 30.9837 53.8379C30.2133 54.2543 29.6554 54.9948 29.2591 55.9111C28.6956 57.2145 28.5004 58.7909 28.5003 60H27.5003C27.5004 58.7416 27.6958 57.0704 28.2952 55.624C28.0171 55.731 27.7739 55.9065 27.5531 56.1504C27.1455 56.6007 26.8038 57.2929 26.5042 58.2393C25.9024 60.1409 25.5346 62.8351 24.9935 66.082C24.7608 67.4788 24.9928 69.0144 25.4671 70.2598C25.7035 70.8801 25.9946 71.4131 26.3021 71.8115C26.6158 72.2178 26.9165 72.4447 27.1585 72.5254C27.3251 72.5811 27.4507 72.7211 27.4886 72.8926C27.5261 73.0641 27.4709 73.2438 27.3431 73.3643L10.3431 89.3643C10.1421 89.5533 9.82533 89.5434 9.63606 89.3428C9.44714 89.1417 9.45663 88.8249 9.65754 88.6357L26.1663 73.0967C25.9289 72.91 25.7085 72.6786 25.5111 72.4229C25.1315 71.931 24.7969 71.3064 24.5335 70.6152C24.1111 69.5061 23.8547 68.1796 23.9095 66.8691L23.3372 66.7275L23.3089 66.7207L23.2816 66.71C21.7419 66.1323 21.0278 64.7328 21.0579 63.3662C21.0875 62.033 21.8257 60.6742 23.2347 60.0713L25.4378 58.3086C25.4743 58.182 25.5119 58.0582 25.5501 57.9375C25.8664 56.9385 26.2622 56.0857 26.8118 55.4785C27.085 55.177 27.3938 54.939 27.7406 54.7734C27.1559 54.5602 26.4605 54.5129 25.595 54.5029L24.9798 54.5C22.5768 54.5 20.6913 55.0067 19.2972 56.0547C17.91 57.0978 16.9445 58.7262 16.47 61.0977C16.4402 61.2463 16.3439 61.3746 16.2093 61.4443C16.0746 61.5138 15.9152 61.5186 15.7767 61.457C15.0805 61.1477 14.62 61.0817 14.3265 61.1152C14.0591 61.146 13.9035 61.2613 13.7933 61.4189C13.6694 61.5967 13.589 61.8518 13.5452 62.1533C13.5023 62.4502 13.5003 62.7501 13.5003 63C13.5004 63.1261 13.5522 63.5251 13.6761 64.0557C13.7972 64.5741 13.9763 65.1724 14.2083 65.6895C14.4492 66.226 14.7114 66.5932 14.9554 66.751C15.0628 66.8203 15.1522 66.8403 15.2366 66.832C15.327 66.823 15.4676 66.776 15.6595 66.6162L15.7122 66.5771C15.8404 66.4961 16.0006 66.4773 16.1458 66.5283C16.3119 66.5869 16.4353 66.7298 16.47 66.9023C16.7182 68.143 17.0534 69.7674 17.1575 71.2881C17.2097 72.0498 17.2055 72.8062 17.097 73.4883C16.9888 74.1673 16.7719 74.8105 16.3704 75.3125C15.9307 75.8619 15.2013 76.1404 14.4515 76.3076C13.6849 76.4785 12.781 76.5568 11.8851 76.6221C10.9745 76.6884 10.0674 76.7416 9.24055 76.8594C8.40847 76.9779 7.71734 77.1549 7.22786 77.4346C6.76364 77.7001 6.09519 78.4112 5.35871 79.5488C4.63509 80.6668 3.88144 82.1396 3.22688 83.8506C1.91771 87.273 1.01709 91.6088 1.49446 95.9316C1.68277 97.1277 2.30033 97.9536 3.22883 98.4844C4.18039 99.028 5.49018 99.2765 7.0511 99.2217C10.1717 99.1119 14.1276 97.7957 17.7376 95.5742C19.3037 94.6104 21.0789 92.9811 22.887 91.0156C24.6898 89.0559 26.5046 86.7849 28.1517 84.5625C29.7983 82.3408 31.2748 80.1707 32.3997 78.416C32.4476 78.3414 32.4929 78.2663 32.5394 78.1934C32.5384 78.1908 32.5375 78.1881 32.5364 78.1855L32.5472 78.1807C33.5971 76.5315 34.3004 75.3081 34.5208 74.8008C34.8753 73.9844 34.9846 73.3389 34.9652 72.7676C34.9452 72.1894 34.7936 71.6524 34.5784 71.041C34.3721 70.455 34.1133 69.8137 33.8978 69.0469L33.8929 69.0459L33.8948 69.0352C33.6616 68.2022 33.4798 67.221 33.4798 66C33.48 63.4054 34.5271 59.8285 35.5531 57.7764C36.0506 56.7812 36.2502 56.1227 36.2503 55.748C36.2502 55.5776 36.208 55.5339 36.2054 55.5312C36.2012 55.5271 36.16 55.4893 36.0081 55.4844C35.9965 55.4876 35.9696 55.4966 35.9261 55.5156C35.8452 55.551 35.7315 55.6133 35.5941 55.7109C35.3196 55.9061 34.9642 56.2316 34.5853 56.7295C33.8284 57.7241 32.9799 59.4045 32.4915 62.0898L31.9993 62H31.5003C31.5004 57.5321 32.7972 53.9638 34.4261 51.8799ZM35.0169 69.292C35.1811 69.792 35.3607 70.2513 35.5218 70.709C35.7463 71.3468 35.9389 71.9991 35.9642 72.7324C35.9895 73.473 35.8437 74.2667 35.4388 75.1992C35.2057 75.7356 34.5635 76.8513 33.6575 78.293C34.6825 80.823 36.3755 84.7615 38.2786 88.4932C39.2926 90.4814 40.3623 92.4042 41.4193 94.0205C42.4821 95.6458 43.5091 96.9252 44.429 97.6611C46.0798 98.9816 48.624 99.0106 50.6907 97.9648C52.7328 96.9314 54.1955 94.9063 53.7884 92.2246C53.6091 91.0439 53.0194 89.8182 52.1107 88.5225C51.2031 87.2284 49.9984 85.893 48.6234 84.4941C45.8958 81.7192 42.4749 78.6739 39.6195 75.3242L39.3206 74.9727L39.6468 74.6465C39.8515 74.4416 40.3669 73.7796 40.8079 72.9004C41.1468 72.2248 41.4199 71.4625 41.4935 70.7148L35.0169 69.292ZM189 1C170.96 1 155.455 11.859 148.664 27.4004L148.403 28H146.598L146.336 27.4004C139.545 11.859 124.041 1.00017 106 1C81.6998 1 62.0003 20.6995 62.0003 45C62.0003 69.3005 81.6998 89 106 89C124.041 88.9998 139.545 78.141 146.336 62.5996L146.598 62H148.403L148.664 62.5996C155.455 78.141 170.96 89 189 89C213.301 88.9998 233 69.3004 233 45C233 20.6996 213.301 1.00023 189 1ZM147.252 63C144.796 68.6207 141.224 73.6412 136.818 77.7852L161.028 80.248C155.304 75.699 150.714 69.7862 147.748 63H147.252ZM63.6429 29.7734L36.3109 51.4131C36.279 51.4383 36.2437 51.4573 36.2083 51.4736C34.9995 52.4328 33.7435 54.4487 33.0482 57.2783C33.2917 56.833 33.5415 56.4497 33.7894 56.124C34.2223 55.5552 34.6491 55.1557 35.015 54.8955C35.197 54.7661 35.3697 54.6674 35.5247 54.5996C35.6671 54.5374 35.8397 54.4817 36.0081 54.4844L36.1312 54.4902C36.4179 54.5141 36.7016 54.6087 36.9193 54.8301C37.1677 55.0831 37.2502 55.42 37.2503 55.748C37.2502 56.3772 36.9484 57.22 36.4466 58.2236C35.4729 60.1714 34.48 63.5951 34.4798 66C34.4798 66.8516 34.5735 67.5681 34.7142 68.2021L74.2445 76.8828C74.2524 76.8908 74.2609 76.8983 74.2689 76.9062C66.0739 68.756 61.0003 57.471 61.0003 45C61.0003 39.6555 61.9331 34.5291 63.6429 29.7734ZM32.4368 51.9805C29.9382 46.9669 21.1454 44.2472 13.9163 49.5898C10.295 52.2665 8.69127 56.462 8.04524 60.418C7.40048 64.3671 7.72285 68.0034 7.88508 69.4639C8.06842 71.114 7.42105 72.3203 6.68684 73.1006C6.32284 73.4873 5.93515 73.7718 5.61262 73.9619C5.45159 74.0568 5.30141 74.1315 5.17317 74.1836C5.15869 74.1894 5.14174 74.193 5.12532 74.1992C5.12374 74.2256 5.12145 74.2567 5.12141 74.29C5.12146 74.5318 5.17255 74.8656 5.30793 75.1875C5.44243 75.5067 5.65211 75.7951 5.95637 75.9893C6.25589 76.1801 6.69147 76.3076 7.33332 76.2363L7.33821 76.2852C7.87436 76.0839 8.48129 75.9581 9.09895 75.8701C9.9694 75.7462 10.9238 75.6887 11.8118 75.624C12.7144 75.5583 13.5488 75.4847 14.2337 75.332C14.9352 75.1756 15.373 74.9575 15.5892 74.6875C15.843 74.37 16.0168 73.9144 16.1097 73.3311C16.202 72.7506 16.2097 72.0764 16.1605 71.3564C16.0785 70.1594 15.8435 68.8845 15.6224 67.7666C15.5287 67.7956 15.4331 67.8174 15.3363 67.8271C14.9892 67.8617 14.6762 67.7621 14.4124 67.5918C13.9138 67.2696 13.5541 66.6731 13.2962 66.0986C13.0295 65.5043 12.8316 64.8403 12.7015 64.2832C12.5745 63.7394 12.5004 63.2467 12.5003 63C12.5003 62.7505 12.5016 62.3856 12.556 62.0098C12.6098 61.6384 12.7214 61.2074 12.973 60.8467C13.2387 60.4661 13.6452 60.1871 14.2122 60.1221C14.6176 60.0756 15.0835 60.1407 15.6185 60.3213C16.168 58.0691 17.1915 56.3876 18.6966 55.2559C20.2203 54.1104 22.1821 53.569 24.5091 53.5059L24.9798 53.5L25.5823 53.501C26.8269 53.5108 28.0143 53.5984 29.0023 54.3262C29.6642 53.3938 30.604 52.6777 31.9144 52.5068C32.0778 52.3218 32.2525 52.1461 32.4368 51.9805ZM23.8128 60.8906L23.7552 60.9365L23.6859 60.9639C22.6482 61.3791 22.0806 62.3716 22.0579 63.3877C22.0359 64.3889 22.5428 65.3534 23.6107 65.7646L24.015 65.8643C24.3849 63.6408 24.6865 61.6029 25.0491 59.9004L23.8128 60.8906ZM153.77 17.0049L143.9 20.7363C145.174 22.7231 146.298 24.8161 147.252 27H147.748C149.322 23.398 151.354 20.0417 153.77 17.0049Z" fill="white"/>
<mask id="mask0_11241_22839" style="mask-type:alpha" maskUnits="userSpaceOnUse" x="67" y="6" width="161" height="78">
<path d="M106 6C127.539 6 145 23.4609 145 45C145 66.5391 127.539 84 106 84C84.4609 84 67 66.5391 67 45C67 23.4609 84.4609 6 106 6Z" fill="#01111A"/>
<path d="M189 6C210.539 6 228 23.4609 228 45C228 66.5391 210.539 84 189 84C167.461 84 150 66.5391 150 45C150 23.4609 167.461 6 189 6Z" fill="#01111A"/>
</mask>
<g mask="url(#mask0_11241_22839)">
<path d="M106 6C127.539 6 145 23.4609 145 45C145 66.5391 127.539 84 106 84C84.4609 84 67 66.5391 67 45C67 23.4609 84.4609 6 106 6Z" fill="url(#paint0_linear_11241_22839)"/>
<path d="M189 6C210.539 6 228 23.4609 228 45C228 66.5391 210.539 84 189 84C167.461 84 150 66.5391 150 45C150 23.4609 167.461 6 189 6Z" fill="url(#paint1_linear_11241_22839)"/>
<path d="M218.925 70.0078C211.771 78.5593 201.021 84 189 84C179.817 84 171.376 80.8236 164.713 75.5127L166 74.998C182.303 71.642 195.388 70.1265 218.925 70.0078Z" fill="url(#paint2_linear_11241_22839)"/>
<g filter="url(#filter0_n_11241_22839)">
<path d="M82.3438 76.0045C100.942 71.3542 118.952 69.9022 135.697 70.277C128.544 78.6733 117.895 84.0006 106 84.0006C97.1039 84.0006 88.9056 81.0188 82.3438 76.0045Z" fill="url(#paint3_linear_11241_22839)"/>
<path d="M161.052 72.1969C177.84 74.3185 192.652 77.7842 204.578 80.7604C199.806 82.842 194.539 84.0006 189 84.0006C178.039 84.0006 168.137 79.4765 161.052 72.1969Z" fill="url(#paint4_linear_11241_22839)"/>
</g>
<g filter="url(#filter1_f_11241_22839)">
<path d="M189 6C202.793 6 214.914 13.1608 221.848 23.9678C215.323 25.0353 208.903 26.0964 203.307 27.0479C187.528 29.7307 179.248 25.2523 176.066 23.3555C172.957 21.5018 171.852 16.3448 175.674 14.4121C176.296 10.1763 178.493 8.04294 186.495 6.19824C186.505 6.15844 186.518 6.11899 186.53 6.0791C187.347 6.02806 188.17 6.00001 189 6Z" fill="white"/>
</g>
<path d="M189 6C202.45 6 214.31 12.809 221.321 23.168C215.309 24.153 209.434 25.1256 204.262 26.0049C188.483 28.6877 180.203 24.2093 177.021 22.3125C173.912 20.4588 172.807 15.3019 176.629 13.3691C177.109 10.1014 178.526 8.08613 182.823 6.48828C184.835 6.16812 186.898 6.00001 189 6Z" fill="white"/>
<g filter="url(#filter2_f_11241_22839)">
<path d="M90.1758 29.7881C108.21 22.5587 114.339 25.294 119.195 29.5079C120.103 29.6861 122.46 29.4284 126.4 31.3809C129.499 32.9166 129.368 35.6256 129.724 37.1973C131.194 37.7889 132.825 39.1036 132.425 41.0645C132.24 41.9697 131.785 43.485 129.582 44.2129C127.379 44.9409 117.189 47.9485 106.877 49.7061C98.627 51.1122 101.568 50.7471 98.9502 51.1885C97.2045 51.4829 92.7625 52.243 88.957 52.9297C84.4453 53.7438 75.7424 54.2172 67.832 53.0479C67.4567 51.2589 67.2059 49.4248 67.085 47.5547C68.1619 46.9133 69.2935 46.4243 70.1084 46.25C70.2585 45.0115 69.9521 43.1857 71.8506 41.1543C73.9997 38.8552 81.4581 39.5594 84.2832 39.5176C81.65 39.1392 75.7481 35.5717 90.1758 29.7881Z" fill="white"/>
</g>
<g filter="url(#filter3_f_11241_22839)">
<path d="M90.1758 29.7862C108.21 22.5567 114.339 25.292 119.195 29.5059C120.103 29.6841 122.46 29.4264 126.4 31.379C129.499 32.9146 131.266 36.0034 131.621 37.5752C133.092 38.167 134.265 40.3361 133.864 42.2969C133.679 43.2021 132.809 43.9312 130.605 44.6592C128.402 45.3873 117.189 47.9466 106.877 49.7042C98.627 51.1103 101.568 50.7441 98.9502 51.1856C97.2046 51.4799 92.7625 52.2411 88.957 52.9278C84.5822 53.7172 75.7791 54.7146 67.9883 53.7618C67.5294 51.7627 67.2264 49.7049 67.0879 47.6016C68.1933 46.9252 69.3194 46.4168 70.1084 46.2481C70.2585 45.0095 69.9521 43.1837 71.8506 41.1524C73.9996 38.8531 81.4581 39.5574 84.2832 39.5157C81.65 39.1373 75.7482 35.5697 90.1758 29.7862Z" fill="white"/>
</g>
<g filter="url(#filter4_f_11241_22839)">
<path d="M90.2002 27.9561C108.227 20.5046 114.361 23.3479 119.227 27.7188C120.135 27.905 122.492 27.6414 126.438 29.6699C129.54 31.2651 131.312 34.466 131.67 36.0938C133.142 36.7088 134.32 38.9562 133.923 40.9854C133.74 41.922 132.258 42.9369 130.056 43.6865C127.853 44.4362 117.253 46.8044 106.941 48.6055C98.6919 50.0463 101.633 49.6728 99.0156 50.125C97.2703 50.4265 92.828 51.2051 89.0225 51.9092C84.52 52.7422 75.673 53.8118 67.7529 52.6602C67.3054 50.4128 67.0521 48.0961 67.0088 45.7275C67.3746 45.5544 67.7307 45.4238 68.0596 45.3516C68.2075 44.0697 67.8557 41.3562 69.751 39.2568C71.8965 36.8807 76.7846 36.2891 79.6104 36.251C76.9757 35.8546 75.7789 33.9173 90.2002 27.9561Z" fill="white"/>
</g>
<path d="M91.1992 27.9056C109.225 20.4543 115.361 23.2966 120.226 27.6673C121.134 27.8535 123.492 27.591 127.437 29.6195C130.539 31.2147 132.311 34.4156 132.669 36.0433C134.141 36.6584 135.318 38.9057 134.921 40.9349C134.738 41.8716 133.927 43.404 131.725 44.1536C129.522 44.9033 118.252 46.753 107.939 48.554C99.6904 49.9948 102.632 49.6223 100.015 50.0745C98.2694 50.3761 93.827 51.1546 90.0215 51.8587C85.2646 52.7388 75.8457 53.2203 67.6064 51.7298C67.5974 51.7282 67.5881 51.7256 67.5791 51.724C67.2646 49.9143 67.0744 48.0622 67.0186 46.1761C67.7057 45.7546 68.4293 45.4393 69.0586 45.3011C69.2065 44.0192 68.8547 41.3058 70.75 39.2064C72.8957 36.8304 78.2505 36.5844 81.0762 36.5462C78.4416 36.1498 76.7779 33.8669 91.1992 27.9056Z" fill="white"/>
<g opacity="0.8" filter="url(#filter5_f_11241_22839)">
<path d="M152.299 45.2044C161.433 43.6444 165.722 44.5652 167.291 44.7327C170.055 45.0277 171.744 47.3843 171.792 48.9105C172.663 48.7981 174.393 48.1924 178.071 48.3314C181.748 48.4704 182.519 52.5036 183.051 52.7415C183.583 52.9798 185.461 55.199 182.369 55.7073C179.498 56.1795 158.986 58.8617 154.927 59.1165C153.921 59.1797 153.17 59.1472 152.615 59.0657C151.003 54.8961 150.086 50.3807 150.008 45.6605C150.731 45.4953 151.494 45.3419 152.299 45.2044Z" fill="white"/>
<path d="M144.937 47.1966C144.712 51.2382 143.872 55.1146 142.509 58.7357C140.544 58.7696 137.872 58.7143 135.699 58.2317C133.19 57.674 133.606 55.2965 134.179 54.2942C134.752 53.2922 136.715 50.8881 138.941 49.9427C140.254 49.385 142.124 48.2731 144.937 47.1966Z" fill="white"/>
</g>
<g opacity="0.8" filter="url(#filter6_f_11241_22839)">
<path d="M152.299 45.2044C161.433 43.6444 165.722 44.5652 167.291 44.7327C170.055 45.0277 171.744 47.3843 171.792 48.9105C172.663 48.7981 174.393 48.1924 178.071 48.3314C181.748 48.4704 182.519 52.5036 183.051 52.7415C183.583 52.9798 185.461 55.199 182.369 55.7073C179.498 56.1795 158.986 58.8617 154.927 59.1165C153.921 59.1797 153.17 59.1472 152.615 59.0657C151.003 54.8961 150.086 50.3807 150.008 45.6605C150.731 45.4953 151.494 45.3419 152.299 45.2044Z" fill="white"/>
<path d="M144.937 47.1966C144.712 51.2382 143.872 55.1146 142.509 58.7357C140.544 58.7696 137.872 58.7143 135.699 58.2317C133.19 57.674 133.606 55.2965 134.179 54.2942C134.752 53.2922 136.715 50.8881 138.941 49.9427C140.254 49.385 142.124 48.2731 144.937 47.1966Z" fill="white"/>
</g>
<g opacity="0.1" filter="url(#filter7_f_11241_22839)">
<path d="M152.99 44.9365C162.123 43.3765 166.611 43.9106 168.18 44.0781C170.944 44.3731 172.712 46.3538 172.76 47.8799C173.631 47.7676 175.362 47.1617 179.04 47.3008C182.716 47.4402 183.003 51.9872 183.535 52.2266C184.067 52.4645 184.88 54.4508 183.114 54.7412C180.243 55.2134 159.954 57.8311 155.895 58.0859C152.648 58.2897 152.055 57.5147 152.176 57.2139C152.106 57.2191 152.033 57.223 151.958 57.2285C150.742 53.5442 150.061 49.6175 150.005 45.5391C150.922 45.3237 151.914 45.1203 152.99 44.9365Z" fill="white"/>
<path d="M144.944 47.0811C144.749 50.7851 144.037 54.3515 142.879 57.7109C140.993 57.7227 138.627 57.6363 136.668 57.2012C134.158 56.6435 134.575 54.2658 135.148 53.2637C135.721 52.2616 137.805 50.2042 140.031 49.2588C141.204 48.7605 142.711 47.9344 144.944 47.0811Z" fill="white"/>
</g>
<g opacity="0.9">
<path d="M152.99 44.9365C162.123 43.3765 166.611 43.9106 168.18 44.0781C170.944 44.3731 172.712 46.3538 172.76 47.8799C173.631 47.7676 175.362 47.1617 179.04 47.3008C182.717 47.4402 182.742 52.4047 183.274 52.6426C183.806 52.8808 183.962 54.0989 183.098 54.2412C180.227 54.7134 159.954 57.8311 155.895 58.0859C152.648 58.2897 152.055 57.5147 152.176 57.2139C152.106 57.2191 152.033 57.223 151.958 57.2285C150.742 53.5442 150.061 49.6175 150.005 45.5391C150.922 45.3237 151.914 45.1203 152.99 44.9365Z" fill="white"/>
<path d="M144.944 47.0811C144.749 50.7851 144.037 54.3515 142.879 57.7109C140.993 57.7227 138.627 57.6363 136.668 57.2012C134.158 56.6435 134.575 54.2658 135.148 53.2637C135.721 52.2616 137.805 50.2042 140.031 49.2588C141.204 48.7605 142.711 47.9344 144.944 47.0811Z" fill="white"/>
</g>
<path d="M212 22L187 25L204 27L215 30L212 22Z" fill="#009A44"/>
<path d="M215 30L212 22L204 27L215 30Z" fill="url(#paint5_linear_11241_22839)"/>
<path d="M121.579 9.23828C121.989 9.4169 122.395 9.60084 122.797 9.79297C110.971 15.0106 101.734 20.0099 94.8293 24.5723C90.0016 27.7621 86.3228 30.7328 83.6975 33.4072C81.0658 36.0882 79.5211 38.4427 78.9143 40.3965C78.3153 42.3252 78.6339 43.8285 79.6857 44.9395C80.7703 46.0848 82.7123 46.8973 85.5334 47.2197C91.1646 47.8633 99.986 46.5173 111.333 42.5273C121.234 39.0458 132.553 35.4065 142.936 32.4502C143.043 32.7656 143.147 33.0824 143.246 33.4014C132.883 36.3511 121.569 39.9871 111.665 43.4697C100.264 47.4789 91.2731 48.8817 85.4201 48.2129C82.4992 47.879 80.2799 47.0206 78.9602 45.627C77.6079 44.1989 77.278 42.2956 77.9602 40.0996C78.6346 37.9286 80.3011 35.4387 82.9836 32.7061C85.6725 29.9669 89.4116 26.9531 94.2785 23.7373C101.08 19.2436 110.102 14.344 121.579 9.23828Z" fill="url(#paint6_linear_11241_22839)"/>
<path d="M170.653 26.3047C171.816 26.2128 172.838 26.1919 173.69 26.2529C174.532 26.3133 175.251 26.4572 175.782 26.7246C176.332 27.0014 176.732 27.4435 176.774 28.0762C176.812 28.6559 176.535 29.273 176.078 29.9043C175.156 31.1785 173.262 32.8285 170.286 34.9092C165.446 38.2938 162.546 40.7958 161.21 42.4785C160.879 42.8955 160.656 43.2471 160.524 43.5361C160.389 43.8292 160.363 44.0249 160.375 44.1436C160.386 44.2409 160.424 44.3102 160.513 44.377C160.619 44.4559 160.808 44.5367 161.121 44.584C161.75 44.6789 162.71 44.6168 163.99 44.3672C165.26 44.1196 166.807 43.6958 168.594 43.1006C172.167 41.9103 176.669 40.0422 181.78 37.5488C185.783 35.5962 191.281 32.8481 195.779 30.5869C198.028 29.4565 200.028 28.4474 201.464 27.7217C202.182 27.359 202.759 27.0657 203.157 26.8643C203.356 26.7638 203.51 26.6866 203.614 26.6338C203.667 26.6074 203.707 26.5877 203.734 26.5742C203.747 26.5675 203.757 26.562 203.764 26.5586L203.773 26.5527C204.019 26.4279 204.321 26.5271 204.446 26.7734C204.57 27.0196 204.471 27.3195 204.225 27.4443L204.215 27.4502C204.208 27.4536 204.198 27.4592 204.185 27.4658C204.158 27.4793 204.118 27.4993 204.067 27.5254C203.962 27.5783 203.807 27.6572 203.609 27.7578C203.21 27.9594 202.632 28.2514 201.914 28.6143C200.478 29.3402 198.478 30.3487 196.229 31.4795C191.73 33.7408 186.228 36.4917 182.219 38.4473C177.08 40.9541 172.535 42.8429 168.909 44.0508C167.097 44.6544 165.507 45.0903 164.182 45.3486C162.868 45.6048 161.774 45.695 160.973 45.5742C160.571 45.5136 160.202 45.3933 159.914 45.1787C159.611 44.9521 159.421 44.6349 159.38 44.25C159.341 43.8858 159.44 43.5018 159.615 43.1191C159.793 42.7327 160.066 42.3111 160.427 41.8564C161.861 40.0504 164.867 37.4786 169.713 34.0898C172.681 32.0143 174.453 30.4462 175.269 29.3193C175.681 28.7501 175.792 28.3701 175.777 28.1416C175.765 27.9661 175.671 27.7886 175.333 27.6182C174.976 27.4385 174.411 27.3069 173.617 27.25C172.833 27.1938 171.866 27.2122 170.732 27.3018C168.463 27.481 165.568 27.9419 162.215 28.626C159.32 29.2166 156.094 29.9716 152.647 30.8516C152.797 30.4651 152.953 30.0815 153.115 29.7012C156.309 28.8948 159.306 28.1993 162.015 27.6465C165.385 26.9587 168.325 26.4886 170.653 26.3047Z" fill="url(#paint7_linear_11241_22839)"/>
</g>
<path d="M106 6C127.539 6 145 23.4609 145 45C145 66.5391 127.539 84 106 84C84.4609 84 67 66.5391 67 45C67 23.4609 84.4609 6 106 6ZM189 6C210.539 6 228 23.4609 228 45C228 66.5391 210.539 84 189 84C167.461 84 150 66.5391 150 45C150 23.4609 167.461 6 189 6ZM106 7C85.0132 7 68 24.0132 68 45C68 65.9868 85.0132 83 106 83C126.987 83 144 65.9868 144 45C144 24.0132 126.987 7 106 7ZM189 7C168.013 7 151 24.0132 151 45C151 65.9868 168.013 83 189 83C209.987 83 227 65.9868 227 45C227 24.0132 209.987 7 189 7Z" fill="white"/>
<defs>
<filter id="filter0_n_11241_22839" x="82.3438" y="70.2207" width="122.234" height="13.7799" filterUnits="userSpaceOnUse" color-interpolation-filters="sRGB">
<feFlood flood-opacity="0" result="BackgroundImageFix"/>
<feBlend mode="normal" in="SourceGraphic" in2="BackgroundImageFix" result="shape"/>
<feTurbulence type="fractalNoise" baseFrequency="2.9867651462554932 2.9867651462554932" stitchTiles="stitch" numOctaves="3" result="noise" seed="4954" />
<feColorMatrix in="noise" type="luminanceToAlpha" result="alphaNoise" />
<feComponentTransfer in="alphaNoise" result="coloredNoise1">
<feFuncA type="discrete" tableValues="1 1 1 1 1 1 1 1 1 1 1 1 1 1 1 1 1 1 1 1 1 1 1 1 1 1 1 1 1 1 1 1 1 1 1 1 1 1 1 1 1 1 1 1 1 1 1 1 1 1 1 0 0 0 0 0 0 0 0 0 0 0 0 0 0 0 0 0 0 0 0 0 0 0 0 0 0 0 0 0 0 0 0 0 0 0 0 0 0 0 0 0 0 0 0 0 0 0 0 0 "/>
</feComponentTransfer>
<feComposite operator="in" in2="shape" in="coloredNoise1" result="noise1Clipped" />
<feFlood flood-color="rgba(0, 0, 0, 0.02)" result="color1Flood" />
<feComposite operator="in" in2="noise1Clipped" in="color1Flood" result="color1" />
<feMerge result="effect1_noise_11241_22839">
<feMergeNode in="shape" />
<feMergeNode in="color1" />
</feMerge>
</filter>
<filter id="filter1_f_11241_22839" x="172.241" y="5" width="50.6077" height="23.8824" filterUnits="userSpaceOnUse" color-interpolation-filters="sRGB">
<feFlood flood-opacity="0" result="BackgroundImageFix"/>
<feBlend mode="normal" in="SourceGraphic" in2="BackgroundImageFix" result="shape"/>
<feGaussianBlur stdDeviation="0.5" result="effect1_foregroundBlur_11241_22839"/>
</filter>
<filter id="filter2_f_11241_22839" x="64.085" y="22.3086" width="71.4014" height="34.4401" filterUnits="userSpaceOnUse" color-interpolation-filters="sRGB">
<feFlood flood-opacity="0" result="BackgroundImageFix"/>
<feBlend mode="normal" in="SourceGraphic" in2="BackgroundImageFix" result="shape"/>
<feGaussianBlur stdDeviation="1.5" result="effect1_foregroundBlur_11241_22839"/>
</filter>
<filter id="filter3_f_11241_22839" x="65.0879" y="23.3066" width="70.8557" height="32.8447" filterUnits="userSpaceOnUse" color-interpolation-filters="sRGB">
<feFlood flood-opacity="0" result="BackgroundImageFix"/>
<feBlend mode="normal" in="SourceGraphic" in2="BackgroundImageFix" result="shape"/>
<feGaussianBlur stdDeviation="1" result="effect1_foregroundBlur_11241_22839"/>
</filter>
<filter id="filter4_f_11241_22839" x="66.5088" y="22.8516" width="67.9919" height="30.8125" filterUnits="userSpaceOnUse" color-interpolation-filters="sRGB">
<feFlood flood-opacity="0" result="BackgroundImageFix"/>
<feBlend mode="normal" in="SourceGraphic" in2="BackgroundImageFix" result="shape"/>
<feGaussianBlur stdDeviation="0.25" result="effect1_foregroundBlur_11241_22839"/>
</filter>
<filter id="filter5_f_11241_22839" x="130.744" y="41.3105" width="56.3591" height="20.8392" filterUnits="userSpaceOnUse" color-interpolation-filters="sRGB">
<feFlood flood-opacity="0" result="BackgroundImageFix"/>
<feBlend mode="normal" in="SourceGraphic" in2="BackgroundImageFix" result="shape"/>
<feGaussianBlur stdDeviation="1.5" result="effect1_foregroundBlur_11241_22839"/>
</filter>
<filter id="filter6_f_11241_22839" x="131.744" y="42.3105" width="54.3591" height="18.8392" filterUnits="userSpaceOnUse" color-interpolation-filters="sRGB">
<feFlood flood-opacity="0" result="BackgroundImageFix"/>
<feBlend mode="normal" in="SourceGraphic" in2="BackgroundImageFix" result="shape"/>
<feGaussianBlur stdDeviation="1" result="effect1_foregroundBlur_11241_22839"/>
</filter>
<filter id="filter7_f_11241_22839" x="134.213" y="43.3535" width="50.4792" height="15.2661" filterUnits="userSpaceOnUse" color-interpolation-filters="sRGB">
<feFlood flood-opacity="0" result="BackgroundImageFix"/>
<feBlend mode="normal" in="SourceGraphic" in2="BackgroundImageFix" result="shape"/>
<feGaussianBlur stdDeviation="0.25" result="effect1_foregroundBlur_11241_22839"/>
</filter>
<linearGradient id="paint0_linear_11241_22839" x1="144" y1="12.837" x2="144.058" y2="80.4782" gradientUnits="userSpaceOnUse">
<stop stop-color="#A0DCFF"/>
<stop offset="0.614063" stop-color="#DCF2FF"/>
</linearGradient>
<linearGradient id="paint1_linear_11241_22839" x1="144" y1="12.837" x2="144.058" y2="80.4782" gradientUnits="userSpaceOnUse">
<stop stop-color="#A0DCFF"/>
<stop offset="0.614063" stop-color="#DCF2FF"/>
</linearGradient>
<linearGradient id="paint2_linear_11241_22839" x1="168.5" y1="78.5006" x2="236.001" y2="77.5006" gradientUnits="userSpaceOnUse">
<stop stop-color="#9DD690" stop-opacity="0.6"/>
<stop offset="1" stop-color="#29AA62"/>
</linearGradient>
<linearGradient id="paint3_linear_11241_22839" x1="83.5" y1="75.5" x2="224" y2="99.5" gradientUnits="userSpaceOnUse">
<stop offset="0.132287" stop-color="#A3CC59"/>
<stop offset="0.910299" stop-color="#43B02A"/>
</linearGradient>
<linearGradient id="paint4_linear_11241_22839" x1="83.5" y1="75.5" x2="224" y2="99.5" gradientUnits="userSpaceOnUse">
<stop offset="0.132287" stop-color="#A3CC59"/>
<stop offset="0.910299" stop-color="#43B02A"/>
</linearGradient>
<linearGradient id="paint5_linear_11241_22839" x1="212" y1="27.5" x2="208.5" y2="24.5" gradientUnits="userSpaceOnUse">
<stop stop-color="#26890D"/>
<stop offset="1" stop-color="#046A38"/>
</linearGradient>
<linearGradient id="paint6_linear_11241_22839" x1="91.2356" y1="38.4479" x2="208.534" y2="37.1568" gradientUnits="userSpaceOnUse">
<stop stop-color="#005274"/>
<stop offset="1" stop-color="#009ADA" stop-opacity="0.36"/>
</linearGradient>
<linearGradient id="paint7_linear_11241_22839" x1="91.2356" y1="38.4479" x2="208.534" y2="37.1568" gradientUnits="userSpaceOnUse">
<stop stop-color="#005274"/>
<stop offset="1" stop-color="#009ADA" stop-opacity="0.36"/>
</linearGradient>
</defs>
</svg>
