<svg fill="none" height="48" viewBox="0 0 49 48" width="49" xmlns="http://www.w3.org/2000/svg">
<g id="Hand Thumb up 2 1">
<path d="M39.443 33C40.243 33.5 41.743 34.2 41.843 36.1C41.843 38 38.543 38.8 38.543 38.8C38.543 38.8 39.943 39.4 39.443 42C39.043 44.5 33.943 44 30.843 43.6H28.543C21.243 43.1 17.843 40 17.843 40L10.943 41.3L9.34297 41.6C9.34297 41.6 5.84297 39.4 5.44297 32.5C5.04297 25.6 8.04297 22.1 8.04297 22.1L15.543 22.7C15.543 22.7 16.343 21.4 18.443 19.5C21.543 16.8 22.943 13.1 22.043 10.5C20.843 7.30004 20.343 4.30004 24.243 4.10004C28.143 3.90004 29.543 8.10004 29.843 10C30.043 11.8 29.143 15.1 29.143 17C29.143 18.9 30.143 20 32.443 20.1H38.543C41.343 20.1 42.043 21.4 42.343 23.2H42.643C42.643 25.3 39.543 26 38.643 26.6C40.143 26.6 43.043 28.5 43.043 30C43.043 31.5 39.443 33 39.443 33Z" fill="url(#paint0_linear_14448_133500)" id="Vector"/>
<path d="M13.8426 25.2999L14.0426 24.9L15.3426 22.7999L7.84258 22.2C7.84258 22.2 7.24258 23.1999 6.74258 24.4C6.54258 24.9999 6.34258 25.6 6.14258 26.2C9.24258 25.9 13.6426 25.7 13.6426 25.7L13.8426 25.4V25.2999Z" fill="#F8C045" id="Vector_2"/>
<g id="Layer_3">
<path d="M7.74336 40C7.54336 39.7 7.14336 39 6.94336 38.7L15.3434 37.9V37.2C15.3434 37.2 19.8434 39.2 21.5434 39.7C23.2434 40.2 27.6434 41.1999 29.7434 41.5999C31.9434 41.8999 31.3434 42.4 31.3434 42.4L30.5434 42.7L28.4434 43.5C21.1434 43 17.7434 39.9 17.7434 39.9L10.8434 41.2C10.8434 41.2 7.84336 40.1 7.74336 40Z" fill="url(#paint1_linear_14448_133500)" id="Vector_3"/>
</g>
<path d="M7.54297 39.7L16.443 38.7L15.943 37.9C16.243 37.9 20.343 40.1 22.043 40.6C23.743 41.1 27.443 42.1 29.643 42.4C30.043 42.4 30.343 42.4 30.543 42.6C31.843 42.9 31.943 43.1 31.943 43.1L30.743 43.6C30.543 43.6 30.343 43.6 30.143 43.6H28.443C21.143 43.1 17.743 40 17.743 40L10.843 41.3L9.24297 41.6C9.24297 41.6 8.84297 41.4 8.34297 40.9L7.54297 39.8V39.7Z" fill="#EAA622" id="Vector_4"/>
<path d="M17.2426 39.4C17.2426 39.4 12.0426 40.1 8.14258 40.5C8.54258 41 9.34258 41.5 9.34258 41.5L17.8426 39.9L17.2426 39.4Z" fill="#D88F28" id="Vector_5"/>
<path d="M15.5434 31.4C15.3434 30.4 15.1434 29.2 14.5434 27.2C12.3434 27.2 8.64336 27.4999 5.74336 27.7999C5.74336 28.0999 5.44336 32.0999 5.44336 32.0999C5.44336 33.5999 5.84336 35.7 6.24336 36.9C9.44336 36.3 14.5434 35.5999 16.5434 35.2999C16.4434 34.8999 15.7434 32.5 15.6434 31.5H15.5434V31.4Z" fill="#FFD146" id="Vector_6"/>
<path d="M15.6435 34.3C15.4435 34.3 8.94345 35.3 5.84345 35.7C5.54345 34.7 5.14345 31 5.64345 28.2C8.44345 28.2 11.9435 28.1 14.2435 28C14.7435 29.7 15.0435 32.6 15.5435 34.2L15.6435 34.3Z" fill="#FFDA6B" id="Vector_7"/>
<path d="M14.0434 29.7C13.9434 31.6 14.3434 36 17.3434 37.4C21.0434 39.2 23.8434 36.6 23.9434 34.6C23.9434 33.2 23.9434 31.6 24.9434 28.5C25.5434 26.9 27.0434 23.6 26.1434 22.1C25.2434 20.6 22.4434 20 20.3434 20.7C18.2434 21.4 14.3434 23.2 13.9434 29.7H14.0434Z" fill="#FFD146" id="Vector_8"/>
<path d="M14.6434 24.1L15.3434 22.7L7.94336 22.1C7.94336 22.1 7.34336 22.9 6.94336 24H14.6434V24.1Z" fill="#F3B921" id="Vector_9"/>
<path d="M16.9429 36.7C20.3429 38.2 22.5429 36 22.6429 34.2C22.6429 33 22.4429 31.2 23.5429 28.4C24.0429 27 26.1429 23.8 25.2429 22.5C24.3429 21.2 22.0429 20.7 19.8429 21.3C17.6429 21.9 13.9429 24.6 13.7429 29.7C13.5429 34.8 14.2429 35.4 16.9429 36.6V36.7Z" fill="#FFDA6B" id="Vector_10"/>
<path d="M15.0422 23.3L15.3422 22.7L7.84219 22.1C7.84219 22.1 7.54219 22.6 7.24219 23.3C7.84219 23.3 15.0422 23.4 15.0422 23.4V23.3Z" fill="#EAA622" id="Vector_11"/>
<path d="M8.74219 41.1C9.04219 41.4 9.34219 41.6 9.34219 41.6L17.8422 40L17.5422 39.8L8.74219 41.1Z" fill="#C57927" id="Vector_12"/>
<path d="M14.8431 28.5C14.6431 29.9 14.7431 32.6 16.5431 33.8C18.8431 35.3 20.8431 34.2 21.0431 32.7C21.1431 31.7 20.6431 30.2 21.5431 27.9C21.9431 26.7 24.0431 24 23.4431 22.9C22.8431 21.8 21.1431 21.5 19.8431 22C18.6431 22.5 15.5431 23.5 14.9431 28.4L14.8431 28.5Z" fill="#FFE187" id="Vector_13"/>
<path d="M29.9426 43.1C22.6426 42.7 16.6426 39 16.6426 39C18.2426 40.7 23.1426 44.1 31.1426 43.6L35.1426 43H30.5426H30.0426H29.9426V43.1Z" fill="#D88F28" id="Vector_14"/>
<path d="M30.2426 43.4C21.3426 43.1 16.6426 39 16.6426 39C18.2426 40.7 23.3426 44.1 31.3426 43.6L30.2426 43.4Z" fill="#C57927" id="Vector_15"/>
<path d="M13.4418 27.2C13.4418 24.6 16.1418 21.3 18.2418 19.5C21.3418 16.8 22.7418 13.1 21.8418 10.5C20.6418 7.29996 20.2418 4.19996 24.1418 4.09996C28.0418 3.99996 29.5418 8.69996 29.7418 10.5C29.9418 12.3 28.9418 15.2 28.9418 17.1C28.9418 19 31.0418 20.1 32.1418 20.1H38.2418C41.0418 20.1 42.2418 21.6 42.5418 23.3C42.5418 23.3 41.4418 21.8 40.7418 21.6C40.0418 21.4 32.4418 22.7 30.4418 22.2C28.4418 21.7 27.6418 20.3 27.5418 18C27.5418 16.2 28.5418 12.6 28.2418 10.3C27.9418 7.99996 26.1418 5.89996 24.8418 5.69996C23.5418 5.39996 22.0418 6.09996 22.1418 7.39996C22.1418 8.39996 23.3418 11.5 23.3418 12.8C23.3418 14.1 22.6418 16.6 21.6418 18C20.6418 19.4 16.3418 21.8 14.0418 26.6L13.3418 27.3H13.4418V27.2Z" fill="#F8C045" id="Semishadow"/>
<path d="M13.4422 27C13.5422 24.4 16.1422 21.4 18.2422 19.5C21.3422 16.8 22.7422 13.1 21.8422 10.5C20.6422 7.29996 20.2422 4.19996 24.1422 4.09996C28.0422 3.99996 29.5422 8.69996 29.7422 10.5C29.9422 12.3 28.9422 15.2 28.9422 17.1C28.9422 19 31.0422 20.1 32.1422 20.1H38.2422C41.0422 20.1 42.3422 21.5 42.5422 23.3C42.5422 23.3 41.4422 22 40.7422 21.6C39.8422 21.1 32.9422 21.8 31.0422 21.2C29.1422 20.6 28.0422 19.8 28.0422 18C28.0422 16.2 29.4422 12.1 28.9422 9.89996C28.1422 6.09996 25.7422 5.09996 24.9422 4.99996C23.6422 4.79996 21.7422 5.19996 21.5422 6.89996C21.4422 7.89996 22.6422 11.4 22.6422 12.8C22.6422 14.2 22.1422 16.1 21.0422 17.5C19.9422 18.9 14.6422 23.8 13.4422 27Z" fill="#F3B921" id="Shadow"/>
<path d="M13.543 26.2C14.043 23.8 16.143 21.2 18.143 19.5C21.243 16.8 22.543 13.2 21.643 10.6C20.443 7.4 20.243 4.19999 24.143 4.09999C28.043 3.99999 29.943 7.5 30.143 10.6C30.343 13.7 29.143 15.2 29.143 17.1C29.143 19 31.043 20.1 32.143 20.1H38.143C40.943 20.1 42.243 21.2 42.643 23.1C42.643 23.1 41.543 22 40.943 21.7C40.043 21.2 33.043 21.4 31.143 20.8C29.243 20.2 28.743 19.1 28.743 17.9C28.643 16.1 30.043 12.3 29.443 9.99999C28.543 5.99999 26.343 4.89999 25.243 4.69999C22.743 4.29999 21.643 5.49999 21.543 6.89999C21.343 8.29999 22.643 10.6 22.643 12.8C22.643 15 22.043 16.1 20.943 17.5C18.943 20.3 15.043 22 13.643 26.3H13.543V26.2Z" fill="#EAA622" id="Shadow2"/>
<path d="M37.1434 27C35.7434 27 33.6434 27 31.1434 27C27.0434 27 26.0434 20.6 32.1434 20.5C38.2434 20.4 35.0434 20.4 37.6434 20.4C40.2434 20.4 42.6434 21.6 42.6434 24C42.6434 26.4 38.8434 27 37.1434 27Z" fill="#C57927" id="Vector_16"/>
<g id="Layer_2">
<path d="M32.7421 20.4C34.1421 20.4 35.4421 20.4 37.9421 20.4C40.4421 20.4 42.5421 21.5 42.6421 23.1C42.7421 24.7 41.7421 26 38.1421 26.1C34.5421 26.2 31.0421 26.7 29.5421 25.6C27.1421 23.8 28.4421 20.4 32.6421 20.5L32.7421 20.4Z" fill="#D88F28" id="Vector_17"/>
</g>
<path d="M30.1416 43.4L32.1416 43H39.1416C38.2416 43.7 36.3416 44 35.1416 44C33.9416 44 31.2416 43.8 30.1416 43.5V43.4Z" fill="#C57927" id="Vector_18"/>
<path d="M30.4428 43C29.5428 42.9 28.2428 42 28.6428 40C29.0428 38 30.8428 38.1 35.1428 38.3C39.4428 38.5 39.9428 39.4 39.9428 41C39.9428 42.6 39.2428 43.4 37.1428 43.5C35.0428 43.6 32.2428 43.3 30.4428 43Z" fill="#C57927" id="Vector_19"/>
<path d="M40.1423 33C41.1423 32.9 43.1423 32.2 43.1423 30C43.1423 27.8 41.1423 26.6 39.6423 26.5C39.6423 26.5 35.2423 26.4 33.1423 26.5C31.0423 26.6 29.7423 26.7 28.6423 27.5C26.3423 29.1 27.9423 32.8 31.1423 33C34.3423 33.2 37.8423 33.3 40.1423 33Z" fill="#C57927" id="Vector_20"/>
<path d="M39.6428 38.5C41.5428 37.8 42.1428 37.2 42.1428 35.5C42.1428 33.8 40.7428 32.7 38.2428 32.5C35.7428 32.3 34.0428 32.5 32.9428 32.5C31.8428 32.5 28.5428 32.9 28.1428 35.2C27.8428 37.3 28.6428 38.4 30.0428 38.5C31.4428 38.6 36.9428 39.4 39.6428 38.5Z" fill="#C57927" id="Vector_21"/>
<path d="M29.2432 40.2C29.4432 38.5 31.0432 38.2 35.1432 38.5C39.2432 38.8 39.6432 39.5 39.7432 40.6C39.8432 41.7 39.1432 42.8 37.1432 43C35.1432 43.2 32.9432 43 31.1432 42.5C29.3432 42 29.0432 41.9 29.2432 40.2Z" fill="#D88F28" id="Vector_22"/>
<path d="M31.1416 42C30.1416 41.8 29.4416 41.2 29.6416 39.9C29.8416 38.6 31.3416 38.3 35.1416 38.5C38.9416 38.7 39.5416 39.7 39.6416 40.8C39.7416 41.9 38.5416 42.5 37.1416 42.5C35.7416 42.5 32.7416 42.3 31.1416 42Z" fill="#EAA622" id="Vector_23"/>
<path d="M28.8432 34.9C28.4432 36.8 29.2432 37.8 30.6432 37.9C32.0432 38 36.0432 38.3 39.1432 37.9C42.2432 37.5 43.1432 32.5 38.1432 32.4C33.1432 32.3 35.3432 32.4 33.1432 32.4C29.5432 32.4 28.9432 34.1 28.8432 34.8V34.9Z" fill="#D88F28" id="Vector_24"/>
<path d="M40.443 32C41.343 31.9 42.943 31.5 42.843 29.6C42.743 27.7 41.243 26.5 39.743 26.5H33.543C31.543 26.5 30.243 26.8 29.143 27.5C28.043 28.2 28.343 29.9 28.643 30.5C29.143 31.3 29.643 32 31.643 32H40.443Z" fill="#D88F28" id="Vector_25"/>
<path d="M40.1426 31.5C41.0426 31.5 42.7426 31.0999 42.6426 29.4C42.5426 27.6999 41.0426 26.7 39.6426 26.7H33.5426C31.6426 26.7 30.3426 27 29.2426 27.6C28.1426 28.2 28.4426 29.7 28.7426 30.2C29.2426 30.9 29.6426 31.4 31.6426 31.5C33.6426 31.6 37.9426 31.6 40.1426 31.5Z" fill="#EAA622" id="Vector_26"/>
<path d="M38.1418 32.5C36.6418 32.5 34.4418 32.5 33.4418 32.5C31.7418 32.5 29.3418 33.2 29.0418 34.8C28.7418 36.5 29.5418 37.4 30.7418 37.5C31.9418 37.6 33.6418 37.5 38.1418 37.5C42.6418 37.5 41.8418 32.5 38.1418 32.5Z" fill="#EAA622" id="Vector_27"/>
<path d="M30.8429 25.4C28.3429 24.9999 28.1429 22 29.9429 21.1C31.1429 20.5 32.1429 20.3 33.5429 20.2H38.1429C40.9429 20.2 42.3429 21 42.6429 23C42.9429 25 38.4429 25.7 37.1429 25.7C35.8429 25.7 32.8429 25.7 30.8429 25.4Z" fill="#EAA622" id="Vector_28"/>
<path d="M40.2429 31.4C40.9429 31.3 42.2429 30.8 42.2429 29.2C42.2429 27.6 40.9429 26.7 39.7429 26.7C39.7429 26.7 36.3429 26.6999 34.7429 26.7999C33.1429 26.8999 32.0429 27.1 31.2429 27.7C30.4429 28.3 30.6429 29.7 30.8429 30.1C31.2429 30.7 31.6429 31.2999 33.2429 31.2999C34.8429 31.2999 38.5429 31.7 40.2429 31.4Z" fill="#F3B921" id="Vector_29"/>
<path d="M38.8432 32.8C36.8432 32.7 35.5432 32.6 34.7432 32.6C33.9432 32.6 31.2432 33.2 31.0432 34.6C30.7432 36.2 31.6432 37 32.5432 37.1C33.9432 37.2 36.7432 37.3 39.1432 37C41.5432 36.7 42.0432 33 38.8432 32.8Z" fill="#F3B921" id="Vector_30"/>
<path d="M32.642 41.5C31.542 41.2 30.642 41 30.742 40C30.842 39 32.442 38.3 35.642 38.5C38.842 38.7 39.042 39.6 39.142 40.5C39.242 41.4 37.742 41.9 37.142 42C36.042 42.2 34.042 41.9 32.642 41.5Z" fill="#F3B921" id="Vector_31"/>
<path d="M42.1417 23C42.1417 20.6 39.3417 20.5 38.3417 20.5C37.3417 20.5 34.0417 20.7 32.3417 21C30.2417 21.4 29.9417 24.9 32.3417 25C34.7417 25.1 36.3417 25 38.3417 25C40.3417 25 42.1417 24.1 42.1417 23Z" fill="#F3B921" id="Vector_32"/>
<path d="M31.6426 39.9999C31.6426 38.7999 33.0426 38.3999 35.8426 38.4999C38.6426 38.5999 38.7426 39.4999 38.7426 40.1999C38.7426 40.8999 38.5426 41.4999 35.1426 41.4999C31.7426 41.4999 31.6426 40.3999 31.6426 39.9999Z" fill="#FFD146" id="Vector_33"/>
<path d="M41.9424 28.9C41.9424 27.5 40.7424 26.7 39.6424 26.7C39.6424 26.7 36.5424 26.6999 35.1424 26.7999C33.7424 26.8999 32.7424 27 31.9424 27.6C31.1424 28.2 31.0424 30.6 33.8424 30.9C36.6424 31.2 38.6424 31.3 40.1424 31C41.6424 30.7 41.9424 30.3 41.9424 28.9Z" fill="#FFD146" id="Vector_34"/>
<path d="M38.6422 33C36.9422 32.9 35.9422 32.8 35.2422 32.8C33.5422 32.8 32.0422 33.3001 31.7422 34.4001C31.4422 35.5001 32.3422 36.3001 33.3422 36.4001C34.3422 36.5001 35.2422 36.6 38.1422 36.5C41.0422 36.4 41.5422 33.2 38.6422 33Z" fill="#FFD146" id="Vector_35"/>
<path d="M33.2419 21C31.4419 21.3 31.1419 22.9 32.2419 23.5C33.3419 24.1 36.5419 24.5 38.2419 24.5C39.9419 24.5 41.9419 23.8 41.7419 22C41.5419 20.2 39.1419 20.5 38.2419 20.5C37.3419 20.5 34.7419 20.7 33.2419 21Z" fill="#FFD146" id="Vector_36"/>
<path d="M39.1416 30C40.6416 30 41.5416 29.6 41.5416 28.5C41.5416 27.4 40.5416 26.8 39.5416 26.8H35.5416C34.2416 26.8 33.4416 27 32.7416 27.4C32.0416 27.8 31.6416 29.8 34.1416 30C36.6416 30.2 37.7416 30 39.1416 30Z" fill="#FFDA6B" id="Vector_37"/>
<path d="M38.143 33C36.643 32.9 35.843 33 35.243 33C34.343 33 32.443 33.3 32.243 34.2C32.043 35.2 32.543 35.7 33.443 35.8C34.343 35.9 36.243 36.1 38.143 36.1C41.243 36.1 40.643 33.3 38.143 33.1V33Z" fill="#FFDA6B" id="Vector_38"/>
<path d="M32.2435 39.8999C32.3435 38.8999 33.5435 38.5999 35.9435 38.7999C38.3435 38.9999 38.5435 39.5999 38.5435 40.0999C38.5435 40.9999 35.9435 40.9999 35.1435 40.9999C34.3435 40.9999 32.1435 40.8999 32.2435 39.8999Z" fill="#FFDA6B" id="Vector_39"/>
<path d="M29.1426 22.6C29.1426 23 29.3426 24.6 30.1426 24.6C30.9426 24.6 30.7426 23.5 30.6426 22.6C30.5426 21.7 30.0426 21.4 29.6426 21.6C29.2426 21.8 29.1426 22.2 29.1426 22.6Z" fill="#F3B921" id="Vector_40"/>
<path d="M30.1423 41C30.5423 41 30.8423 40.6 31.0423 39.7C31.2423 38.8 31.0423 39 30.6423 39C30.2423 39 29.7423 39.2 29.6423 40C29.5423 40.8 29.6423 40.9 30.1423 41Z" fill="#F3B921" id="Vector_41"/>
<path d="M29.6419 27.5C30.1419 27.5 30.7419 27.5 30.6419 28.4C30.5419 29.3 30.6419 30.7 29.6419 30.5C28.6419 30.3 28.5419 29.5 28.6419 29C28.7419 28.5 28.8419 27.6 29.6419 27.5Z" fill="#F3B921" id="Vector_42"/>
<path d="M30.1433 33.6C30.7433 33.6 31.2433 33.6 31.0433 34.6C30.8433 35.6 30.9433 37 29.9433 36.8C28.9433 36.6 28.6433 33.9 30.1433 33.6Z" fill="#F3B921" id="Vector_43"/>
<path d="M38.1416 20.5C37.3416 20.5 35.4416 20.8 34.1416 21C32.8416 21.2 32.0416 22.5 33.1416 23C34.5416 23.6 36.6416 23.8 38.1416 23.7C39.6416 23.6 41.2416 22.9 41.1416 22C41.0416 21.1 40.5416 20.5 38.1416 20.5Z" fill="#FFDA6B" id="Vector_44"/>
<path d="M35.7434 40.5C34.5434 40.5 32.9434 40.5 32.9434 39.8C32.9434 39.1 33.9434 38.8 35.9434 38.9C37.9434 39 38.0434 39.5 38.0434 40C38.0434 40.5 36.9434 40.5 35.7434 40.5Z" fill="#FFE187" id="Vector_45"/>
<path d="M37.9425 35C39.0425 35 40.1425 34.8 40.1425 34.4C40.1425 33.7 39.8425 33.2 38.5425 33.1C37.2425 33 36.2425 32.9 35.6425 32.9C34.5425 32.9 33.2425 33.1 33.0425 33.8C32.8425 34.6 33.3425 34.9 34.0425 35C34.7425 35.1 36.5425 35 37.9425 35Z" fill="#FFE187" id="Vector_46"/>
<path d="M39.1423 29C39.5423 29 40.9423 29.1 40.9423 28.2C40.9423 27.3 39.9423 27 39.1423 27H36.1423C35.1423 27 34.4423 26.9 33.8423 27.3C33.2423 27.7 33.0423 28.9 35.1423 29C37.2423 29.1 38.0423 29 39.1423 29Z" fill="#FFE187" id="Vector_47"/>
<path d="M38.1423 21C37.5423 21 35.2423 21.3 34.1423 21.5C32.8423 21.7 33.2423 22.7 34.1423 23C35.0423 23.3 36.8423 23.2 38.1423 23C39.4423 22.8 40.6423 22.3 40.1423 21.5C39.6423 20.7 38.8423 20.9 38.1423 21Z" fill="#FFE187" id="Vector_48"/>
<path d="M23.5427 11.3C22.7427 9.29998 21.4427 6.39998 22.6427 5.59998C23.8427 4.79998 25.1427 5.89998 25.6427 6.49998C26.8427 7.99998 27.4427 11.7 25.6427 12.4C23.8427 13.1 23.4427 11.3 23.4427 11.3H23.5427Z" fill="#FFD146" id="Vector_49"/>
<path d="M23.5433 10.5C22.9433 8.90003 22.0433 6.60003 22.9433 6.00003C23.8433 5.40003 24.7433 6.30003 25.1433 6.70003C26.0433 7.90003 26.5433 10.8 25.1433 11.3C23.7433 11.8 23.5433 10.5 23.5433 10.5Z" fill="#FFDA6B" id="Vector_50"/>
</g>
<defs>
<linearGradient gradientUnits="userSpaceOnUse" id="paint0_linear_14448_133500" x1="24.543" x2="24.043" y1="51.7" y2="14.1">
<stop stop-color="#F2C038"/>
<stop offset="1" stop-color="#FFCC40"/>
</linearGradient>
<linearGradient gradientUnits="userSpaceOnUse" id="paint1_linear_14448_133500" x1="5.24336" x2="25.4434" y1="31.2" y2="45.1">
<stop stop-color="#F5BC25"/>
<stop offset="0.5" stop-color="#EFB21E"/>
</linearGradient>
</defs>
</svg>
