<svg fill="none" height="48" viewBox="0 0 49 48" width="49" xmlns="http://www.w3.org/2000/svg">
<g id="Hand Thumb down 2 1">
<path d="M42.6716 24.74C42.6716 26.6 41.0916 28.01 38.3016 28.01H32.2116C31.1116 28.01 28.9816 29.11 28.9816 31.02C28.9816 32.93 30.0116 35.79 29.7916 37.62C29.5716 39.45 28.0316 44.15 24.1416 44C20.2516 43.85 20.6816 40.78 21.8716 37.55C22.8316 34.94 21.3616 31.2 18.2816 28.53C16.1316 26.67 15.3616 25.33 15.3616 25.33L7.86164 25.97C7.86164 25.97 5.74164 22.98 5.46164 17.26C5.44164 16.93 5.43164 16.58 5.43164 16.23C5.43164 16.14 5.43164 16.05 5.43164 15.96C5.43164 12.93 6.05164 10.82 6.78164 9.36998C6.96164 9.00998 7.15164 8.68998 7.34164 8.39998C8.28164 6.99998 9.22164 6.51998 9.22164 6.51998L17.7516 8.13998C17.7516 8.13998 21.6516 4.58998 30.1416 4.46998C33.0016 3.95998 38.8716 3.29998 39.3116 5.93998C39.7516 8.57998 38.3816 9.13998 38.3816 9.13998C38.3816 9.13998 41.7016 9.94998 41.6516 11.88C41.6016 13.8 40.9516 14.5 40.1716 14.98C41.6616 15.66 42.6716 16.5 42.6816 18.12C42.6916 19.58 41.6816 21.21 40.2116 21.29C41.1616 21.88 42.6516 22.73 42.6516 24.75L42.6716 24.74Z" fill="url(#paint0_linear_14448_133449)" id="Vector"/>
<path d="M13.5719 21.65L14.1019 23.17L15.3619 25.32L7.86187 25.96C7.86187 25.96 7.24187 24.98 6.73187 23.71C6.50187 23.14 6.04187 21.45 5.92188 20.83C9.03187 21.13 13.5719 21.65 13.5719 21.65Z" fill="url(#paint1_linear_14448_133449)" id="Vector_2"/>
<path d="M13.8819 22.73L14.1019 23.17L15.3619 25.32L7.86187 25.96C7.86187 25.96 7.24187 24.98 6.73187 23.71C6.50187 23.14 6.29187 22.51 6.17188 21.89C9.28187 22.19 13.8819 22.74 13.8819 22.74V22.73Z" fill="#EAA622" id="Vector_3"/>
<path d="M17.2025 8.58001C17.2025 8.58001 11.9725 7.93001 8.0625 7.48001C8.5025 6.98001 9.2325 6.51001 9.2325 6.51001L17.7625 8.13001L17.2025 8.58001Z" fill="#F8C045" id="Vector_4"/>
<path d="M16.4534 9.86001C15.5434 13.41 15.3634 13.73 14.3634 18.04C11.7734 18.04 7.18336 17.47 5.47336 17.25C5.45336 16.92 5.44336 16.57 5.44336 16.22C5.44336 16.13 5.44336 16.04 5.44336 15.95C5.44336 12.92 6.06336 10.81 6.79336 9.36001C6.97336 9.00001 7.16336 8.68001 7.35336 8.39001C9.44336 8.74001 14.7434 9.63001 16.4534 9.86001Z" fill="#FFD146" id="Vector_5"/>
<path d="M16.1934 10.58C15.2834 13.67 15.3634 13.16 14.3634 16.91C11.7534 16.91 7.13336 16.41 5.44336 16.22C5.44336 16.13 5.44336 16.04 5.44336 15.95C5.44336 12.92 6.06336 10.81 6.79336 9.35999C8.68336 9.60999 14.4034 10.37 16.1934 10.58Z" fill="#FFDA6B" id="Vector_6"/>
<path d="M14.213 15.37C14.843 8.85002 19.933 7.45002 21.803 6.79002C23.803 6.08002 26.533 6.22002 27.513 7.64002C28.493 9.06002 25.013 12.73 24.393 14.28C23.183 17.31 24.053 19.27 23.923 20.62C23.733 22.56 20.723 24.1 17.113 22.28C14.223 20.81 14.043 17.24 14.223 15.37H14.213Z" fill="#FFD146" id="Vector_7"/>
<path d="M14.6423 23.85L15.3623 25.33L7.86227 25.97C7.86227 25.97 7.31227 25.1 6.82227 23.94C7.65227 23.94 14.6423 23.86 14.6423 23.86V23.85Z" fill="#D58929" id="Vector_8"/>
<path d="M14.2128 15.06C14.7928 9.19003 19.4328 7.93003 21.1428 7.34003C22.9728 6.70003 25.4528 6.83003 26.3528 8.11003C27.2528 9.39003 24.0628 12.69 23.5028 14.09C22.3928 16.82 23.1928 18.58 23.0728 19.8C22.9028 21.55 20.1528 22.94 16.8528 21.29C14.2128 19.97 14.0428 16.75 14.2128 15.07V15.06Z" fill="#FFDA6B" id="Vector_9"/>
<path d="M15.0627 24.7L15.3627 25.32L7.86266 25.9599C7.86266 25.9599 7.57266 25.4999 7.22266 24.7999C7.78266 24.8399 15.0527 24.7 15.0527 24.7H15.0627Z" fill="#C57927" id="Vector_10"/>
<path d="M8.62208 6.96001C8.94208 6.70001 9.23208 6.51001 9.23208 6.51001L17.7621 8.13001L17.5321 8.32001C17.5321 8.32001 8.43208 7.12001 8.62208 6.96001Z" fill="#F3B921" id="Vector_11"/>
<path d="M15.5729 13.48C16.3429 8.56999 19.7329 7.74999 20.9829 7.33999C22.3229 6.89999 24.0929 7.12999 24.6529 8.24999C25.2129 9.36999 22.7429 11.99 22.2529 13.13C21.2929 15.37 21.7629 16.89 21.6029 17.91C21.3729 19.37 19.3229 20.4 17.0829 18.84C15.2829 17.59 15.3529 14.88 15.5829 13.47L15.5729 13.48Z" fill="#FFE187" id="Vector_12"/>
<path d="M29.9435 4.93004C22.6235 5.36004 16.6035 9.15004 16.6035 9.15004C18.2435 7.47004 23.4435 3.94004 31.3635 4.48004L29.9435 4.94004V4.93004Z" fill="#F8C045" id="Vector_13"/>
<path d="M30.2935 4.63003C21.4035 4.92003 16.6035 9.14003 16.6035 9.14003C18.2435 7.46003 23.4435 3.93003 31.3635 4.47003L30.2935 4.63003Z" fill="#F3B921" id="Vector_14"/>
<path d="M13.4734 21.05C13.6234 23.63 16.0634 26.46 18.2134 28.32C21.3034 30.99 22.8834 34.75 22.0434 37.4C21.1134 40.33 20.1034 43.72 23.9934 43.87C27.8834 44.02 29.4234 39.32 29.6434 37.49C29.8634 35.66 28.8334 32.8 28.8334 30.89C28.8334 28.98 30.9634 27.88 32.0634 27.88H38.1534C40.9434 27.88 42.5634 26.51 42.5634 24.65C42.5634 24.65 41.4434 26.19 40.6834 26.38C39.9234 26.57 31.3134 25 29.4034 25.57C27.4934 26.14 26.7334 27.76 26.6534 30.03C26.5834 31.87 27.8434 35.19 27.4934 37.47C27.1434 39.75 25.8034 40.75 24.9634 40.9C23.6434 41.13 23.0434 40.62 22.9834 39.6C22.9234 38.58 23.8234 36.42 23.8234 35.08C23.8234 33.74 23.5134 31.38 22.4934 29.97C21.4734 28.56 15.9334 22.34 15.1734 21.05L13.4434 20L13.5034 21.05H13.4734Z" fill="url(#paint2_linear_14448_133449)" id="Semilight"/>
<path d="M13.4434 20.62C13.4434 23.26 16.1234 26.66 18.2734 28.52C21.3634 31.19 22.8234 34.93 21.8634 37.54C20.6734 40.77 20.2534 43.85 24.1334 43.99C28.0134 44.13 29.5634 39.44 29.7834 37.61C30.0034 35.78 28.9734 32.92 28.9734 31.01C28.9734 29.1 31.1034 28 32.2034 28H38.2934C41.0834 28 42.6434 26.64 42.6434 24.78C42.6434 24.78 41.5834 26.31 40.8134 26.5C40.0434 26.69 32.4634 25.37 30.5534 25.94C28.6434 26.51 27.7534 27.82 27.6734 30.1C27.6034 31.94 28.6934 35.51 28.3434 37.79C27.9934 40.07 26.1934 42.15 24.9534 42.43C23.6434 42.72 22.1634 42.03 22.2534 40.75C22.3234 39.73 23.2534 36.62 23.2534 35.28C23.2534 33.94 22.6134 31.5 21.5934 30.1C20.5734 28.7 14.9234 22.64 14.1634 21.34L13.4434 20.62Z" fill="#E6A323" id="Semishadow"/>
<path d="M13.5234 21.65C13.9834 24.09 16.2934 26.81 18.2834 28.53C21.3734 31.2 22.8334 34.94 21.8734 37.55C20.6834 40.78 20.2634 43.86 24.1434 44C28.0234 44.14 29.5734 39.45 29.7934 37.62C30.0134 35.79 28.9834 32.93 28.9834 31.02C28.9834 29.11 31.1134 28.01 32.2134 28.01H38.3034C41.0934 28.01 42.6734 26.63 42.6734 24.77C42.6734 24.77 41.5134 26.12 40.8334 26.51C39.9134 27.04 33.2734 27.06 31.3634 27.63C29.4534 28.2 28.6834 29.16 28.6034 30.31C28.4834 32.14 30.0434 35.98 29.5234 38.23C28.5834 42.22 26.1734 43.58 25.0634 43.72C22.2634 44.07 21.5334 42.69 21.3734 41.28C21.2134 39.87 22.4534 37.57 22.4734 35.38C22.4734 34.04 21.8234 32.09 20.7934 30.69C18.7634 27.94 15.1234 26 13.7034 21.68C13.7034 21.68 13.5034 21.43 13.5434 21.63L13.5234 21.65Z" fill="#C57927" id="Shadow"/>
<path d="M13.5234 21.6501C13.9834 24.0901 16.2934 26.8101 18.2834 28.5301C21.3734 31.2001 22.8334 34.9401 21.8734 37.5501C20.6834 40.7801 20.2634 43.8601 24.1434 44.0001C28.0234 44.1401 29.5734 39.4501 29.7934 37.6201C30.0134 35.7901 28.9834 32.9301 28.9834 31.0201C28.9834 29.1101 31.1134 28.0101 32.2134 28.0101H38.3034C41.0934 28.0101 42.6734 26.6301 42.6734 24.7701C42.6734 24.7701 41.5134 26.1201 40.8334 26.5101C39.9134 27.0401 32.9434 26.8501 31.0334 27.4301C29.1234 28.0101 28.6834 29.1701 28.6034 30.3101C28.4834 32.1401 29.8734 35.92 29.3434 38.17C28.4034 42.16 26.2034 43.3501 25.0934 43.4901C22.2934 43.8401 21.5234 42.7001 21.3634 41.2901C21.2034 39.8801 22.4434 37.5801 22.4634 35.3901C22.4634 34.0501 21.8134 32.1001 20.7834 30.7001C18.7534 27.9501 15.1134 26.0101 13.6934 21.6901C13.6934 21.6901 13.4934 21.4401 13.5334 21.6401L13.5234 21.6501Z" fill="#C57927" id="Shadow_2"/>
<path d="M42.6717 24.68C42.6717 22.27 40.4617 20.83 37.6617 20.87C35.0917 20.91 34.2717 20.84 32.7617 20.89C31.3217 20.93 30.2017 21.24 28.9417 21.93C27.0617 22.96 27.1917 26.53 29.9217 27.02C32.1517 27.42 35.4217 27.62 36.8217 27.62C38.2217 27.62 42.6717 28 42.6717 24.68Z" fill="#C57927" id="Vector_15"/>
<path d="M38.2925 9.15997C39.0425 8.77997 39.5225 8.00997 39.4125 6.70997C39.3025 5.40997 39.0625 3.96997 34.8225 3.99997C30.5825 4.02997 28.5625 4.60997 28.5625 7.28997C28.5625 9.45997 30.6025 9.56997 30.6025 9.56997L38.2925 9.16997V9.15997Z" fill="#C57927" id="Vector_16"/>
<path d="M40.2724 21.4C40.2724 21.4 42.9124 20.57 42.8524 18.44C42.7924 16.31 41.1824 15.02 39.6224 14.97C39.6224 14.97 35.1824 14.88 33.1224 15.07C31.0624 15.26 29.6524 15.41 28.5624 16.2C27.4724 16.99 27.7124 18.89 28.0724 19.52C28.5624 20.39 29.0724 21.14 31.2024 21.18C33.3324 21.22 40.2724 21.39 40.2724 21.39V21.4Z" fill="#C57927" id="Vector_17"/>
<path d="M40.1826 14.97C42.1226 14.47 41.7126 12.78 41.7626 12.07C41.8526 10.76 40.4726 9.19002 37.9726 9.17002C35.4726 9.15002 33.7326 9.17002 32.6926 9.17002C31.2426 9.17002 28.3326 10.15 28.0726 12.06C27.7826 14.2 28.7126 15.29 30.0726 15.29C31.9026 15.29 37.7326 15.6 40.1826 14.97Z" fill="#C57927" id="Vector_18"/>
<path d="M38.3423 8.51004C39.1123 8.32004 39.5123 7.51004 39.4123 6.37004C39.3123 5.23004 39.0823 3.97004 35.0423 4.00004C31.0023 4.03004 29.0723 4.53004 29.0723 6.87004C29.0723 8.77004 31.0223 8.86004 31.0223 8.86004C31.0223 8.86004 36.5823 8.95004 38.3523 8.51004H38.3423Z" fill="#D88F28" id="Vector_19"/>
<path d="M38.182 8.34005C38.922 8.16005 39.312 7.37005 39.212 6.28005C39.112 5.19005 38.892 3.97005 35.002 4.00005C31.112 4.03005 29.252 4.51005 29.252 6.76005C29.252 8.59005 31.132 8.68005 31.132 8.68005C31.132 8.68005 36.482 8.77005 38.192 8.34005H38.182Z" fill="#EAA622" id="Vector_20"/>
<path d="M39.9222 14.32C41.8122 14.09 41.7722 12.84 41.7622 11.82C41.7622 11.18 40.5222 9.20003 38.1222 9.18003C35.7222 9.16003 34.0522 9.18003 33.0522 9.18003C31.6622 9.18003 28.8622 10.07 28.6122 11.81C28.3322 13.76 29.2222 14.74 30.5322 14.74C32.2922 14.74 37.7122 14.59 39.9222 14.32Z" fill="#D88F28" id="Vector_21"/>
<path d="M40.4225 20.66C41.3125 20.54 42.9025 20.18 42.8425 18.2C42.7825 16.22 41.2425 15.02 39.7525 14.98C39.7525 14.98 35.5025 14.9 33.5325 15.07C31.5625 15.24 30.2125 15.39 29.1725 16.12C28.1325 16.85 28.3625 18.62 28.7025 19.21C29.1725 20.02 29.6625 20.71 31.6925 20.75C33.7225 20.79 38.2625 20.95 40.4125 20.65L40.4225 20.66Z" fill="#D88F28" id="Vector_22"/>
<path d="M42.6725 24.5C42.6725 22.26 40.5525 20.92 37.8625 20.96C35.4025 21 34.6025 20.94 33.1625 20.98C31.7825 21.02 30.7025 21.31 29.5025 21.95C27.7025 22.91 27.8225 26.24 30.4425 26.69C32.5825 27.06 35.7225 27.25 37.0625 27.25C38.4025 27.25 42.6725 27.61 42.6725 24.52V24.5Z" fill="#D88F28" id="Vector_23"/>
<path d="M40.2434 20.17C41.1034 20.06 42.7334 19.66 42.6734 17.93C42.6134 16.2 41.1034 15.15 39.6434 15.11C39.6434 15.11 35.4934 15.04 33.5634 15.2C31.6334 15.36 30.3134 15.48 29.3034 16.13C28.2934 16.78 28.5134 18.32 28.8534 18.84C29.3134 19.55 29.7934 20.16 31.7834 20.19C33.7734 20.22 38.1434 20.44 40.2434 20.17Z" fill="#EAA622" id="Vector_24"/>
<path d="M40.062 13.99C41.842 13.59 41.502 12.21 41.522 11.64C41.542 11.07 40.332 9.29997 38.022 9.28997C35.712 9.27997 34.102 9.28997 33.142 9.28997C31.802 9.28997 29.112 10.09 28.872 11.64C28.602 13.38 29.462 14.26 30.722 14.26C32.412 14.26 37.792 14.51 40.062 14V13.99Z" fill="#EAA622" id="Vector_25"/>
<path d="M42.2228 24.1899C42.2228 22.1499 40.1828 20.9299 37.6128 20.9699C35.2528 20.9999 34.4928 20.9499 33.1028 20.9899C31.7728 21.0199 30.7428 21.2899 29.5928 21.8699C27.8628 22.7399 27.9828 25.7699 30.4928 26.1799C32.5428 26.5199 35.5628 26.6899 36.8428 26.6899C38.1228 26.6899 42.2228 27.0099 42.2228 24.1999V24.1899Z" fill="#EAA622" id="Vector_26"/>
<path d="M40.2427 19.8001C40.9727 19.7001 42.2827 19.1801 42.2227 17.6201C42.1627 16.0601 40.9127 15.1201 39.7127 15.1001C39.7127 15.1001 36.2827 15.0601 34.6827 15.2101C33.0827 15.3601 32.0027 15.4801 31.1627 16.0601C30.3227 16.6401 30.5227 18.0401 30.8027 18.5001C31.1827 19.1301 31.5827 19.6801 33.2327 19.7001C34.8827 19.7201 38.5127 20.0501 40.2427 19.8101V19.8001Z" fill="#F3B921" id="Vector_27"/>
<path d="M40.3435 13.57C41.8535 13.2 41.5635 11.95 41.5835 11.43C41.6035 10.91 40.5735 9.28996 38.6135 9.27996C36.6535 9.26996 35.2835 9.27996 34.4635 9.27996C33.3235 9.27996 31.0335 10.01 30.8335 11.42C30.6035 13.01 31.3335 13.81 32.4035 13.81C33.8435 13.81 38.4135 14.04 40.3435 13.57Z" fill="#F3B921" id="Vector_28"/>
<path d="M37.9325 7.69C38.4925 7.43 38.8625 6.91 38.7825 6.03C38.7025 5.15 38.5225 4.17 35.3025 4.19C32.0925 4.21 30.5625 4.6 30.5625 6.42C30.5625 7.89 32.1125 7.97 32.1125 7.97L37.9425 7.7L37.9325 7.69Z" fill="#F3B921" id="Vector_29"/>
<path d="M41.7626 23.73C41.7626 21.98 40.0426 20.93 37.8826 20.96C35.8926 20.99 35.2526 20.94 34.0826 20.97C32.9626 21 32.0926 21.23 31.1226 21.72C29.6626 22.47 29.7626 25.07 31.8826 25.42C33.6126 25.71 36.1526 25.86 37.2326 25.86C38.3126 25.86 41.7626 26.14 41.7626 23.72V23.73Z" fill="#F3B921" id="Vector_30"/>
<path d="M37.8522 7.06006C38.3422 6.85006 38.6522 6.42006 38.5822 5.70006C38.5122 4.98006 38.3522 4.17006 35.5822 4.19006C32.8122 4.21006 31.4922 4.53006 31.4922 6.02006C31.4922 7.23006 32.8322 7.29006 32.8322 7.29006L37.8522 7.07006V7.06006Z" fill="#FFD146" id="Vector_31"/>
<path d="M40.1927 19.28C40.8427 19.19 42.0227 18.73 41.9727 17.34C41.9227 15.95 40.7927 15.12 39.7127 15.09C39.7127 15.09 36.6327 15.05 35.1927 15.19C33.7527 15.33 32.7827 15.43 32.0327 15.95C31.2827 16.47 31.4527 17.71 31.7027 18.12C32.0427 18.68 32.4027 19.17 33.8827 19.19C35.3627 19.21 38.6227 19.5 40.1827 19.29L40.1927 19.28Z" fill="#FFD146" id="Vector_32"/>
<path d="M40.062 12.95C41.292 12.41 41.132 11.62 41.142 11.2C41.152 10.78 40.252 9.46004 38.542 9.44004C36.832 9.42004 35.622 9.44004 34.912 9.44004C33.912 9.44004 31.912 10.04 31.732 11.19C31.532 12.49 32.172 13.14 33.112 13.14C34.372 13.14 40.072 12.95 40.072 12.95H40.062Z" fill="#FFD146" id="Vector_33"/>
<path d="M41.1528 23.41C41.1528 22 39.6728 21.16 37.8128 21.19C36.1028 21.21 35.5528 21.18 34.5428 21.2C33.5828 21.22 32.8328 21.41 32.0028 21.81C30.7528 22.41 30.8328 24.5 32.6528 24.78C34.1428 25.01 36.3228 25.13 37.2528 25.13C38.1828 25.13 41.1528 25.35 41.1528 23.41Z" fill="#FFD146" id="Vector_34"/>
<path d="M39.952 18.49C40.482 18.43 41.562 18.08 41.522 17.02C41.482 15.96 40.502 15.32 39.562 15.3C39.562 15.3 36.862 15.26 35.612 15.35C34.362 15.44 33.502 15.52 32.842 15.91C32.182 16.3 32.332 17.25 32.542 17.56C32.842 17.99 33.152 18.36 34.442 18.38C35.732 18.4 38.592 18.64 39.962 18.49H39.952Z" fill="#FFDA6B" id="Vector_35"/>
<path d="M39.7331 12.35C40.8631 11.92 40.7131 11.3 40.7231 10.96C40.7331 10.62 39.9131 9.58 38.3431 9.57C36.7731 9.56 35.6731 9.57 35.0131 9.57C34.1031 9.57 32.2631 10.04 32.1031 10.96C31.9231 11.99 32.5031 12.51 33.3631 12.51C34.5131 12.51 39.7331 12.36 39.7331 12.36V12.35Z" fill="#FFDA6B" id="Vector_36"/>
<path d="M37.6827 6.60994C38.1127 6.44994 38.3927 6.12994 38.3227 5.57994C38.2527 5.02994 38.1227 4.42994 35.6727 4.43994C33.2227 4.44994 32.0527 4.68994 32.0527 5.81994C32.0527 6.72994 33.2327 6.77994 33.2327 6.77994L37.6727 6.60994H37.6827Z" fill="#FFDA6B" id="Vector_37"/>
<path d="M28.762 23.45C28.992 22.49 29.272 22.01 29.702 21.95C30.132 21.89 30.532 21.99 30.372 22.95C30.212 23.91 30.132 25.3 29.372 25.11C28.612 24.92 28.762 23.45 28.762 23.45Z" fill="#F3B921" id="Vector_38"/>
<path d="M29.2426 6.27997C29.4626 5.40997 29.7426 4.97997 30.1626 4.92997C30.5826 4.87997 30.9926 4.96997 30.8426 5.83997C30.6926 6.70997 30.6226 7.95997 29.8626 7.77997C29.1026 7.59997 29.2426 6.26997 29.2426 6.26997V6.27997Z" fill="#F3B921" id="Vector_39"/>
<path d="M28.6917 17.69C28.8617 16.71 29.1717 16.21 29.7017 16.12C30.2317 16.03 30.7717 16.08 30.6817 17.05C30.5917 18.02 30.6617 19.41 29.6617 19.29C28.6617 19.17 28.6817 17.69 28.6817 17.69H28.6917Z" fill="#F3B921" id="Vector_40"/>
<path d="M28.8733 11.96C29.0433 10.98 29.3533 10.48 29.8833 10.39C30.4133 10.3 30.9533 10.35 30.8633 11.32C30.7733 12.29 30.8433 13.68 29.8433 13.56C28.8433 13.44 28.8633 11.96 28.8633 11.96H28.8733Z" fill="#F3B921" id="Vector_41"/>
<path d="M40.7232 22.91C40.7232 21.82 39.4332 21.16 37.8032 21.18C36.3032 21.2 35.8232 21.17 34.9432 21.18C34.1032 21.2 33.4432 21.34 32.7132 21.65C31.6132 22.12 31.6932 23.74 33.2832 23.96C34.5832 24.14 36.4932 24.23 37.3132 24.23C38.1332 24.23 40.7232 24.4 40.7232 22.89V22.91Z" fill="#FFDA6B" id="Vector_42"/>
<path d="M37.3027 6.20997C37.6427 6.07997 37.8727 5.81997 37.8127 5.36997C37.7527 4.91997 37.6527 4.42997 35.6927 4.43997C33.7327 4.44997 32.8027 4.64997 32.8027 5.55997C32.8027 6.29997 33.7427 6.33997 33.7427 6.33997L37.2927 6.19997L37.3027 6.20997Z" fill="#FFE187" id="Vector_43"/>
<path d="M39.4122 11.7301C40.3822 11.4001 40.2622 10.9201 40.2722 10.6601C40.2822 10.4001 39.5822 9.59006 38.2222 9.58006C36.8622 9.57006 35.9222 9.57006 35.3622 9.56006C34.5822 9.56006 32.9922 9.91006 32.8522 10.6101C32.6922 11.4001 33.1922 11.8001 33.9322 11.8101C34.9222 11.8101 39.4122 11.7201 39.4122 11.7201V11.7301Z" fill="#FFE187" id="Vector_44"/>
<path d="M39.6323 17.86C40.0723 17.81 40.9523 17.53 40.9123 16.68C40.8723 15.83 40.0823 15.32 39.3023 15.3C39.3023 15.3 37.0923 15.26 36.0623 15.34C35.0323 15.42 34.3323 15.48 33.7923 15.79C33.2523 16.1 33.3723 16.86 33.5523 17.11C33.7923 17.46 34.0523 17.75 35.1123 17.77C36.1723 17.79 38.5123 17.98 39.6323 17.85V17.86Z" fill="#FFE187" id="Vector_45"/>
<path d="M40.1326 22.64C40.1326 21.72 39.0526 21.16 37.6926 21.18C36.4426 21.2 36.0326 21.18 35.3026 21.18C34.6026 21.2 34.0526 21.31 33.4426 21.58C32.5226 21.97 32.5926 23.35 33.9226 23.53C35.0126 23.68 36.6026 23.76 37.2926 23.76C37.9826 23.76 40.1426 23.91 40.1426 22.63L40.1326 22.64Z" fill="#FFE187" id="Vector_46"/>
</g>
<defs>
<linearGradient gradientUnits="userSpaceOnUse" id="paint0_linear_14448_133449" x1="24.2616" x2="23.7516" y1="4.80998" y2="42.52">
<stop offset="0.22" stop-color="#FFCC40"/>
<stop offset="1" stop-color="#F2C038"/>
</linearGradient>
<linearGradient gradientUnits="userSpaceOnUse" id="paint1_linear_14448_133449" x1="9.81188" x2="11.1619" y1="17.38" y2="26.72">
<stop offset="0.17" stop-color="#F5BC25"/>
<stop offset="0.68" stop-color="#EFB21E"/>
</linearGradient>
<linearGradient gradientUnits="userSpaceOnUse" id="paint2_linear_14448_133449" x1="27.8234" x2="28.6134" y1="15.97" y2="46.37">
<stop offset="0.17" stop-color="#F5BC25"/>
<stop offset="1" stop-color="#F0B51D"/>
</linearGradient>
</defs>
</svg>
